<?xml version="1.0" encoding="UTF-8" standalone="no"?>
<!DOCTYPE svg PUBLIC "-//W3C//DTD SVG 1.1//EN"
 "http://www.w3.org/Graphics/SVG/1.1/DTD/svg11.dtd">
<!-- Generated by graphviz version 2.38.0 (20140413.2041)
 -->
<!-- Title: controllers_diagram Pages: 1 -->
<svg width="1113pt" height="760pt"
 viewBox="0.00 0.00 1113.23 759.91" xmlns="http://www.w3.org/2000/svg" xmlns:xlink="http://www.w3.org/1999/xlink">
<g id="graph0" class="graph" transform="scale(1 1) rotate(0) translate(333.011 379.708)">
<title>controllers_diagram</title>
<polygon fill="white" stroke="none" points="-333.011,380.202 -333.011,-379.708 780.22,-379.708 780.22,380.202 -333.011,380.202"/>
<!-- _diagram_info -->
<g id="node1" class="node"><title>_diagram_info</title>
<text text-anchor="start" x="337.312" y="34.9" font-family="Times,serif" font-size="13.00">Controllers diagram</text>
<text text-anchor="start" x="337.312" y="47.9" font-family="Times,serif" font-size="13.00">Date: Sep 10 2014 &#45; 11:53</text>
<text text-anchor="start" x="337.312" y="60.9" font-family="Times,serif" font-size="13.00">Migration version: 20140910101228</text>
<text text-anchor="start" x="337.312" y="73.9" font-family="Times,serif" font-size="13.00">Generated by RailRoady 1.1.1</text>
<text text-anchor="start" x="337.312" y="86.9" font-family="Times,serif" font-size="13.00">http://railroady.prestonlee.com</text>
</g>
<!-- ApplicationController -->
<g id="node2" class="node"><title>ApplicationController</title>
<path fill="none" stroke="black" d="M-121.273,43.6536C-121.273,43.6536 50.3615,43.6536 50.3615,43.6536 56.3615,43.6536 62.3615,37.6536 62.3615,31.6536 62.3615,31.6536 62.3615,-34.3464 62.3615,-34.3464 62.3615,-40.3464 56.3615,-46.3464 50.3615,-46.3464 50.3615,-46.3464 -121.273,-46.3464 -121.273,-46.3464 -127.273,-46.3464 -133.273,-40.3464 -133.273,-34.3464 -133.273,-34.3464 -133.273,31.6536 -133.273,31.6536 -133.273,37.6536 -127.273,43.6536 -121.273,43.6536"/>
<text text-anchor="middle" x="-35.4558" y="-31.1464" font-family="Times,serif" font-size="14.00">ApplicationController</text>
<polyline fill="none" stroke="black" points="-133.273,-24.3464 62.3615,-24.3464 "/>
<text text-anchor="start" x="-125.273" y="-9.14639" font-family="Times,serif" font-size="14.00">_one_time_conditions_valid_6?</text>
<polyline fill="none" stroke="black" points="-133.273,-2.34639 62.3615,-2.34639 "/>
<polyline fill="none" stroke="black" points="-133.273,21.6536 62.3615,21.6536 "/>
<text text-anchor="start" x="-125.273" y="36.8536" font-family="Times,serif" font-size="14.00">_layout</text>
</g>
<!-- CommentsController -->
<g id="node3" class="node"><title>CommentsController</title>
<path fill="none" stroke="black" d="M146.427,85.4829C146.427,85.4829 256.641,85.4829 256.641,85.4829 262.641,85.4829 268.641,79.4829 268.641,73.4829 268.641,73.4829 268.641,-76.5171 268.641,-76.5171 268.641,-82.5171 262.641,-88.5171 256.641,-88.5171 256.641,-88.5171 146.427,-88.5171 146.427,-88.5171 140.427,-88.5171 134.427,-82.5171 134.427,-76.5171 134.427,-76.5171 134.427,73.4829 134.427,73.4829 134.427,79.4829 140.427,85.4829 146.427,85.4829"/>
<text text-anchor="middle" x="201.534" y="-73.3171" font-family="Times,serif" font-size="14.00">CommentsController</text>
<polyline fill="none" stroke="black" points="134.427,-66.5171 268.641,-66.5171 "/>
<text text-anchor="start" x="142.427" y="-51.3171" font-family="Times,serif" font-size="14.00">create</text>
<text text-anchor="start" x="142.427" y="-37.3171" font-family="Times,serif" font-size="14.00">destroy</text>
<text text-anchor="start" x="142.427" y="-23.3171" font-family="Times,serif" font-size="14.00">edit</text>
<text text-anchor="start" x="142.427" y="-9.31711" font-family="Times,serif" font-size="14.00">index</text>
<text text-anchor="start" x="142.427" y="4.68289" font-family="Times,serif" font-size="14.00">new</text>
<text text-anchor="start" x="142.427" y="18.6829" font-family="Times,serif" font-size="14.00">show</text>
<text text-anchor="start" x="142.427" y="32.6829" font-family="Times,serif" font-size="14.00">update</text>
<polyline fill="none" stroke="black" points="134.427,39.4829 268.641,39.4829 "/>
<polyline fill="none" stroke="black" points="134.427,63.4829 268.641,63.4829 "/>
<text text-anchor="start" x="142.427" y="78.6829" font-family="Times,serif" font-size="14.00">_layout</text>
</g>
<!-- ApplicationController&#45;&gt;CommentsController -->
<g id="edge1" class="edge"><title>ApplicationController&#45;&gt;CommentsController</title>
<path fill="none" stroke="black" d="M62.6476,-1.41706C86.7146,-1.4344 111.939,-1.45257 134.186,-1.4686"/>
</g>
<!-- CountriesController -->
<g id="node4" class="node"><title>CountriesController</title>
<path fill="none" stroke="black" d="M-220.629,375.702C-220.629,375.702 -116.643,375.702 -116.643,375.702 -110.643,375.702 -104.643,369.702 -104.643,363.702 -104.643,363.702 -104.643,213.702 -104.643,213.702 -104.643,207.702 -110.643,201.702 -116.643,201.702 -116.643,201.702 -220.629,201.702 -220.629,201.702 -226.629,201.702 -232.629,207.702 -232.629,213.702 -232.629,213.702 -232.629,363.702 -232.629,363.702 -232.629,369.702 -226.629,375.702 -220.629,375.702"/>
<text text-anchor="middle" x="-168.636" y="216.902" font-family="Times,serif" font-size="14.00">CountriesController</text>
<polyline fill="none" stroke="black" points="-232.629,223.702 -104.643,223.702 "/>
<text text-anchor="start" x="-224.629" y="238.902" font-family="Times,serif" font-size="14.00">create</text>
<text text-anchor="start" x="-224.629" y="252.902" font-family="Times,serif" font-size="14.00">destroy</text>
<text text-anchor="start" x="-224.629" y="266.902" font-family="Times,serif" font-size="14.00">edit</text>
<text text-anchor="start" x="-224.629" y="280.902" font-family="Times,serif" font-size="14.00">index</text>
<text text-anchor="start" x="-224.629" y="294.902" font-family="Times,serif" font-size="14.00">new</text>
<text text-anchor="start" x="-224.629" y="308.902" font-family="Times,serif" font-size="14.00">show</text>
<text text-anchor="start" x="-224.629" y="322.902" font-family="Times,serif" font-size="14.00">update</text>
<polyline fill="none" stroke="black" points="-232.629,329.702 -104.643,329.702 "/>
<polyline fill="none" stroke="black" points="-232.629,353.702 -104.643,353.702 "/>
<text text-anchor="start" x="-224.629" y="368.902" font-family="Times,serif" font-size="14.00">_layout</text>
</g>
<!-- ApplicationController&#45;&gt;CountriesController -->
<g id="edge2" class="edge"><title>ApplicationController&#45;&gt;CountriesController</title>
<path fill="none" stroke="black" d="M-56.1191,43.6555C-75.4076,85.6631 -104.72,149.501 -128.59,201.488"/>
</g>
<!-- MarkersController -->
<g id="node5" class="node"><title>MarkersController</title>
<path fill="none" stroke="black" d="M-317.011,-131.641C-317.011,-131.641 -220.818,-131.641 -220.818,-131.641 -214.818,-131.641 -208.818,-137.641 -208.818,-143.641 -208.818,-143.641 -208.818,-293.641 -208.818,-293.641 -208.818,-299.641 -214.818,-305.641 -220.818,-305.641 -220.818,-305.641 -317.011,-305.641 -317.011,-305.641 -323.011,-305.641 -329.011,-299.641 -329.011,-293.641 -329.011,-293.641 -329.011,-143.641 -329.011,-143.641 -329.011,-137.641 -323.011,-131.641 -317.011,-131.641"/>
<text text-anchor="middle" x="-268.915" y="-290.441" font-family="Times,serif" font-size="14.00">MarkersController</text>
<polyline fill="none" stroke="black" points="-329.011,-283.641 -208.818,-283.641 "/>
<text text-anchor="start" x="-321.011" y="-268.441" font-family="Times,serif" font-size="14.00">create</text>
<text text-anchor="start" x="-321.011" y="-254.441" font-family="Times,serif" font-size="14.00">destroy</text>
<text text-anchor="start" x="-321.011" y="-240.441" font-family="Times,serif" font-size="14.00">edit</text>
<text text-anchor="start" x="-321.011" y="-226.441" font-family="Times,serif" font-size="14.00">index</text>
<text text-anchor="start" x="-321.011" y="-212.441" font-family="Times,serif" font-size="14.00">new</text>
<text text-anchor="start" x="-321.011" y="-198.441" font-family="Times,serif" font-size="14.00">show</text>
<text text-anchor="start" x="-321.011" y="-184.441" font-family="Times,serif" font-size="14.00">update</text>
<polyline fill="none" stroke="black" points="-329.011,-177.641 -208.818,-177.641 "/>
<polyline fill="none" stroke="black" points="-329.011,-153.641 -208.818,-153.641 "/>
<text text-anchor="start" x="-321.011" y="-138.441" font-family="Times,serif" font-size="14.00">_layout</text>
</g>
<!-- ApplicationController&#45;&gt;MarkersController -->
<g id="edge3" class="edge"><title>ApplicationController&#45;&gt;MarkersController</title>
<path fill="none" stroke="black" d="M-83.8286,-46.3699C-120.023,-80.0581 -169.755,-126.347 -208.554,-162.459"/>
</g>
<!-- MediaController -->
<g id="node6" class="node"><title>MediaController</title>
<path fill="none" stroke="black" d="M139.466,-180.2C139.466,-180.2 224.776,-180.2 224.776,-180.2 230.776,-180.2 236.776,-186.2 236.776,-192.2 236.776,-192.2 236.776,-342.2 236.776,-342.2 236.776,-348.2 230.776,-354.2 224.776,-354.2 224.776,-354.2 139.466,-354.2 139.466,-354.2 133.466,-354.2 127.466,-348.2 127.466,-342.2 127.466,-342.2 127.466,-192.2 127.466,-192.2 127.466,-186.2 133.466,-180.2 139.466,-180.2"/>
<text text-anchor="middle" x="182.121" y="-339" font-family="Times,serif" font-size="14.00">MediaController</text>
<polyline fill="none" stroke="black" points="127.466,-332.2 236.776,-332.2 "/>
<text text-anchor="start" x="135.466" y="-317" font-family="Times,serif" font-size="14.00">create</text>
<text text-anchor="start" x="135.466" y="-303" font-family="Times,serif" font-size="14.00">destroy</text>
<text text-anchor="start" x="135.466" y="-289" font-family="Times,serif" font-size="14.00">edit</text>
<text text-anchor="start" x="135.466" y="-275" font-family="Times,serif" font-size="14.00">index</text>
<text text-anchor="start" x="135.466" y="-261" font-family="Times,serif" font-size="14.00">new</text>
<text text-anchor="start" x="135.466" y="-247" font-family="Times,serif" font-size="14.00">show</text>
<text text-anchor="start" x="135.466" y="-233" font-family="Times,serif" font-size="14.00">update</text>
<polyline fill="none" stroke="black" points="127.466,-226.2 236.776,-226.2 "/>
<polyline fill="none" stroke="black" points="127.466,-202.2 236.776,-202.2 "/>
<text text-anchor="start" x="135.466" y="-187" font-family="Times,serif" font-size="14.00">_layout</text>
</g>
<!-- ApplicationController&#45;&gt;MediaController -->
<g id="edge4" class="edge"><title>ApplicationController&#45;&gt;MediaController</title>
<path fill="none" stroke="black" d="M1.45312,-46.4447C36.007,-88.6654 88.0724,-152.283 127.448,-200.395"/>
</g>
<!-- ResortsController -->
<g id="node8" class="node"><title>ResortsController</title>
<path fill="none" stroke="black" d="M-115.292,-201.208C-115.292,-201.208 -23.7472,-201.208 -23.7472,-201.208 -17.7472,-201.208 -11.7472,-207.208 -11.7472,-213.208 -11.7472,-213.208 -11.7472,-363.208 -11.7472,-363.208 -11.7472,-369.208 -17.7472,-375.208 -23.7472,-375.208 -23.7472,-375.208 -115.292,-375.208 -115.292,-375.208 -121.292,-375.208 -127.292,-369.208 -127.292,-363.208 -127.292,-363.208 -127.292,-213.208 -127.292,-213.208 -127.292,-207.208 -121.292,-201.208 -115.292,-201.208"/>
<text text-anchor="middle" x="-69.5196" y="-360.008" font-family="Times,serif" font-size="14.00">ResortsController</text>
<polyline fill="none" stroke="black" points="-127.292,-353.208 -11.7472,-353.208 "/>
<text text-anchor="start" x="-119.292" y="-338.008" font-family="Times,serif" font-size="14.00">create</text>
<text text-anchor="start" x="-119.292" y="-324.008" font-family="Times,serif" font-size="14.00">destroy</text>
<text text-anchor="start" x="-119.292" y="-310.008" font-family="Times,serif" font-size="14.00">edit</text>
<text text-anchor="start" x="-119.292" y="-296.008" font-family="Times,serif" font-size="14.00">index</text>
<text text-anchor="start" x="-119.292" y="-282.008" font-family="Times,serif" font-size="14.00">new</text>
<text text-anchor="start" x="-119.292" y="-268.008" font-family="Times,serif" font-size="14.00">show</text>
<text text-anchor="start" x="-119.292" y="-254.008" font-family="Times,serif" font-size="14.00">update</text>
<polyline fill="none" stroke="black" points="-127.292,-247.208 -11.7472,-247.208 "/>
<polyline fill="none" stroke="black" points="-127.292,-223.208 -11.7472,-223.208 "/>
<text text-anchor="start" x="-119.292" y="-208.008" font-family="Times,serif" font-size="14.00">_layout</text>
</g>
<!-- ApplicationController&#45;&gt;ResortsController -->
<g id="edge6" class="edge"><title>ApplicationController&#45;&gt;ResortsController</title>
<path fill="none" stroke="black" d="M-40.8158,-46.4841C-45.7246,-87.8229 -53.1258,-150.151 -59.1832,-201.162"/>
</g>
<!-- RunsController -->
<g id="node9" class="node"><title>RunsController</title>
<path fill="none" stroke="black" d="M-302.509,174.2C-302.509,174.2 -224.178,174.2 -224.178,174.2 -218.178,174.2 -212.178,168.2 -212.178,162.2 -212.178,162.2 -212.178,-1.79997 -212.178,-1.79997 -212.178,-7.79997 -218.178,-13.8 -224.178,-13.8 -224.178,-13.8 -302.509,-13.8 -302.509,-13.8 -308.509,-13.8 -314.509,-7.79997 -314.509,-1.79997 -314.509,-1.79997 -314.509,162.2 -314.509,162.2 -314.509,168.2 -308.509,174.2 -302.509,174.2"/>
<text text-anchor="middle" x="-263.343" y="1.40003" font-family="Times,serif" font-size="14.00">RunsController</text>
<polyline fill="none" stroke="black" points="-314.509,8.20003 -212.178,8.20003 "/>
<text text-anchor="start" x="-306.509" y="23.4" font-family="Times,serif" font-size="14.00">create</text>
<text text-anchor="start" x="-306.509" y="37.4" font-family="Times,serif" font-size="14.00">destroy</text>
<text text-anchor="start" x="-306.509" y="51.4" font-family="Times,serif" font-size="14.00">edit</text>
<text text-anchor="start" x="-306.509" y="65.4" font-family="Times,serif" font-size="14.00">get_data</text>
<text text-anchor="start" x="-306.509" y="79.4" font-family="Times,serif" font-size="14.00">index</text>
<text text-anchor="start" x="-306.509" y="93.4" font-family="Times,serif" font-size="14.00">new</text>
<text text-anchor="start" x="-306.509" y="107.4" font-family="Times,serif" font-size="14.00">show</text>
<text text-anchor="start" x="-306.509" y="121.4" font-family="Times,serif" font-size="14.00">update</text>
<polyline fill="none" stroke="black" points="-314.509,128.2 -212.178,128.2 "/>
<polyline fill="none" stroke="black" points="-314.509,152.2 -212.178,152.2 "/>
<text text-anchor="start" x="-306.509" y="167.4" font-family="Times,serif" font-size="14.00">_layout</text>
</g>
<!-- ApplicationController&#45;&gt;RunsController -->
<g id="edge7" class="edge"><title>ApplicationController&#45;&gt;RunsController</title>
<path fill="none" stroke="black" d="M-133.423,33.7099C-160.445,43.3795 -188.691,53.4867 -211.917,61.7977"/>
</g>
<!-- UserController -->
<g id="node10" class="node"><title>UserController</title>
<path fill="none" stroke="black" d="M120.878,313.057C120.878,313.057 196.858,313.057 196.858,313.057 202.858,313.057 208.858,307.057 208.858,301.057 208.858,301.057 208.858,221.057 208.858,221.057 208.858,215.057 202.858,209.057 196.858,209.057 196.858,209.057 120.878,209.057 120.878,209.057 114.878,209.057 108.878,215.057 108.878,221.057 108.878,221.057 108.878,301.057 108.878,301.057 108.878,307.057 114.878,313.057 120.878,313.057"/>
<text text-anchor="middle" x="158.868" y="224.257" font-family="Times,serif" font-size="14.00">UserController</text>
<polyline fill="none" stroke="black" points="108.878,231.057 208.858,231.057 "/>
<text text-anchor="start" x="116.878" y="246.257" font-family="Times,serif" font-size="14.00">index</text>
<text text-anchor="start" x="116.878" y="260.257" font-family="Times,serif" font-size="14.00">show</text>
<polyline fill="none" stroke="black" points="108.878,267.057 208.858,267.057 "/>
<polyline fill="none" stroke="black" points="108.878,291.057 208.858,291.057 "/>
<text text-anchor="start" x="116.878" y="306.257" font-family="Times,serif" font-size="14.00">_layout</text>
</g>
<!-- ApplicationController&#45;&gt;UserController -->
<g id="edge8" class="edge"><title>ApplicationController&#45;&gt;UserController</title>
<path fill="none" stroke="black" d="M-2.05041,43.7624C31.915,89.6273 84.4911,160.623 120.23,208.883"/>
</g>
<!-- OmniauthCallbacksController -->
<g id="node7" class="node"><title>OmniauthCallbacksController</title>
<path fill="none" stroke="black" d="M294.106,281.68C294.106,281.68 454.851,281.68 454.851,281.68 460.851,281.68 466.851,275.68 466.851,269.68 466.851,269.68 466.851,175.68 466.851,175.68 466.851,169.68 460.851,163.68 454.851,163.68 454.851,163.68 294.106,163.68 294.106,163.68 288.106,163.68 282.106,169.68 282.106,175.68 282.106,175.68 282.106,269.68 282.106,269.68 282.106,275.68 288.106,281.68 294.106,281.68"/>
<text text-anchor="middle" x="374.478" y="178.88" font-family="Times,serif" font-size="14.00">OmniauthCallbacksController</text>
<polyline fill="none" stroke="black" points="282.106,185.68 466.851,185.68 "/>
<text text-anchor="start" x="290.106" y="200.88" font-family="Times,serif" font-size="14.00">github</text>
<text text-anchor="start" x="290.106" y="214.88" font-family="Times,serif" font-size="14.00">google_oauth2</text>
<text text-anchor="start" x="290.106" y="228.88" font-family="Times,serif" font-size="14.00">handle_callback</text>
<polyline fill="none" stroke="black" points="282.106,235.68 466.851,235.68 "/>
<polyline fill="none" stroke="black" points="282.106,259.68 466.851,259.68 "/>
<text text-anchor="start" x="290.106" y="274.88" font-family="Times,serif" font-size="14.00">_layout</text>
</g>
<!-- Devise::OmniauthCallbacksController -->
<g id="node11" class="node"><title>Devise::OmniauthCallbacksController</title>
<ellipse fill="none" stroke="black" cx="630.05" cy="222.681" rx="146.34" ry="18"/>
<text text-anchor="middle" x="630.05" y="226.881" font-family="Times,serif" font-size="14.00">Devise::OmniauthCallbacksController</text>
</g>
<!-- Devise::OmniauthCallbacksController&#45;&gt;OmniauthCallbacksController -->
<g id="edge5" class="edge"><title>Devise::OmniauthCallbacksController&#45;&gt;OmniauthCallbacksController</title>
<path fill="none" stroke="black" d="M483.605,222.68C478.029,222.68 472.501,222.68 467.065,222.68"/>
</g>
</g>
</svg>
