<?xml version="1.0" encoding="UTF-8" standalone="no"?>
<!DOCTYPE svg PUBLIC "-//W3C//DTD SVG 1.1//EN"
 "http://www.w3.org/Graphics/SVG/1.1/DTD/svg11.dtd">
<!-- Generated by graphviz version 2.38.0 (20140413.2041)
 -->
<!-- Title: controllers_diagram Pages: 1 -->
<svg width="1318pt" height="701pt"
 viewBox="0.00 0.00 1318.42 700.52" xmlns="http://www.w3.org/2000/svg" xmlns:xlink="http://www.w3.org/1999/xlink">
<g id="graph0" class="graph" transform="scale(1 1) rotate(0) translate(412.204 339.828)">
<title>controllers_diagram</title>
<polygon fill="white" stroke="none" points="-412.204,360.695 -412.204,-339.828 906.22,-339.828 906.22,360.695 -412.204,360.695"/>
<!-- _diagram_info -->
<g id="node1" class="node"><title>_diagram_info</title>
<text text-anchor="start" x="416.312" y="-110.1" font-family="Times,serif" font-size="13.00">Controllers diagram</text>
<text text-anchor="start" x="416.312" y="-97.1" font-family="Times,serif" font-size="13.00">Date: Sep 14 2014 &#45; 17:03</text>
<text text-anchor="start" x="416.312" y="-84.1" font-family="Times,serif" font-size="13.00">Migration version: 20140910101228</text>
<text text-anchor="start" x="416.312" y="-71.1" font-family="Times,serif" font-size="13.00">Generated by RailRoady 1.1.1</text>
<text text-anchor="start" x="416.312" y="-58.1" font-family="Times,serif" font-size="13.00">http://railroady.prestonlee.com</text>
</g>
<!-- ApplicationController -->
<g id="node2" class="node"><title>ApplicationController</title>
<path fill="none" stroke="black" d="M-110.724,57.0063C-110.724,57.0063 60.9105,57.0063 60.9105,57.0063 66.9105,57.0063 72.9105,51.0063 72.9105,45.0063 72.9105,45.0063 72.9105,-20.9937 72.9105,-20.9937 72.9105,-26.9937 66.9105,-32.9937 60.9105,-32.9937 60.9105,-32.9937 -110.724,-32.9937 -110.724,-32.9937 -116.724,-32.9937 -122.724,-26.9937 -122.724,-20.9937 -122.724,-20.9937 -122.724,45.0063 -122.724,45.0063 -122.724,51.0063 -116.724,57.0063 -110.724,57.0063"/>
<text text-anchor="middle" x="-24.9069" y="-17.7937" font-family="Times,serif" font-size="14.00">ApplicationController</text>
<polyline fill="none" stroke="black" points="-122.724,-10.9937 72.9105,-10.9937 "/>
<text text-anchor="start" x="-114.724" y="4.20629" font-family="Times,serif" font-size="14.00">_one_time_conditions_valid_6?</text>
<polyline fill="none" stroke="black" points="-122.724,11.0063 72.9105,11.0063 "/>
<polyline fill="none" stroke="black" points="-122.724,35.0063 72.9105,35.0063 "/>
<text text-anchor="start" x="-114.724" y="50.2063" font-family="Times,serif" font-size="14.00">_layout</text>
</g>
<!-- CommentsController -->
<g id="node3" class="node"><title>CommentsController</title>
<path fill="none" stroke="black" d="M234.43,-161.045C234.43,-161.045 344.643,-161.045 344.643,-161.045 350.643,-161.045 356.643,-167.045 356.643,-173.045 356.643,-173.045 356.643,-323.045 356.643,-323.045 356.643,-329.045 350.643,-335.045 344.643,-335.045 344.643,-335.045 234.43,-335.045 234.43,-335.045 228.43,-335.045 222.43,-329.045 222.43,-323.045 222.43,-323.045 222.43,-173.045 222.43,-173.045 222.43,-167.045 228.43,-161.045 234.43,-161.045"/>
<text text-anchor="middle" x="289.536" y="-319.845" font-family="Times,serif" font-size="14.00">CommentsController</text>
<polyline fill="none" stroke="black" points="222.43,-313.045 356.643,-313.045 "/>
<text text-anchor="start" x="230.43" y="-297.845" font-family="Times,serif" font-size="14.00">create</text>
<text text-anchor="start" x="230.43" y="-283.845" font-family="Times,serif" font-size="14.00">destroy</text>
<text text-anchor="start" x="230.43" y="-269.845" font-family="Times,serif" font-size="14.00">edit</text>
<text text-anchor="start" x="230.43" y="-255.845" font-family="Times,serif" font-size="14.00">index</text>
<text text-anchor="start" x="230.43" y="-241.845" font-family="Times,serif" font-size="14.00">new</text>
<text text-anchor="start" x="230.43" y="-227.845" font-family="Times,serif" font-size="14.00">show</text>
<text text-anchor="start" x="230.43" y="-213.845" font-family="Times,serif" font-size="14.00">update</text>
<polyline fill="none" stroke="black" points="222.43,-207.045 356.643,-207.045 "/>
<polyline fill="none" stroke="black" points="222.43,-183.045 356.643,-183.045 "/>
<text text-anchor="start" x="230.43" y="-167.845" font-family="Times,serif" font-size="14.00">_layout</text>
</g>
<!-- ApplicationController&#45;&gt;CommentsController -->
<g id="edge1" class="edge"><title>ApplicationController&#45;&gt;CommentsController</title>
<path fill="none" stroke="black" d="M29.506,-32.9944C83.0301,-77.26 164.862,-144.937 222.4,-192.522"/>
</g>
<!-- CountriesController -->
<g id="node4" class="node"><title>CountriesController</title>
<path fill="none" stroke="black" d="M-171.376,356.195C-171.376,356.195 -67.3893,356.195 -67.3893,356.195 -61.3893,356.195 -55.3893,350.195 -55.3893,344.195 -55.3893,344.195 -55.3893,194.195 -55.3893,194.195 -55.3893,188.195 -61.3893,182.195 -67.3893,182.195 -67.3893,182.195 -171.376,182.195 -171.376,182.195 -177.376,182.195 -183.376,188.195 -183.376,194.195 -183.376,194.195 -183.376,344.195 -183.376,344.195 -183.376,350.195 -177.376,356.195 -171.376,356.195"/>
<text text-anchor="middle" x="-119.382" y="197.395" font-family="Times,serif" font-size="14.00">CountriesController</text>
<polyline fill="none" stroke="black" points="-183.376,204.195 -55.3893,204.195 "/>
<text text-anchor="start" x="-175.376" y="219.395" font-family="Times,serif" font-size="14.00">create</text>
<text text-anchor="start" x="-175.376" y="233.395" font-family="Times,serif" font-size="14.00">destroy</text>
<text text-anchor="start" x="-175.376" y="247.395" font-family="Times,serif" font-size="14.00">edit</text>
<text text-anchor="start" x="-175.376" y="261.395" font-family="Times,serif" font-size="14.00">index</text>
<text text-anchor="start" x="-175.376" y="275.395" font-family="Times,serif" font-size="14.00">new</text>
<text text-anchor="start" x="-175.376" y="289.395" font-family="Times,serif" font-size="14.00">show</text>
<text text-anchor="start" x="-175.376" y="303.395" font-family="Times,serif" font-size="14.00">update</text>
<polyline fill="none" stroke="black" points="-183.376,310.195 -55.3893,310.195 "/>
<polyline fill="none" stroke="black" points="-183.376,334.195 -55.3893,334.195 "/>
<text text-anchor="start" x="-175.376" y="349.395" font-family="Times,serif" font-size="14.00">_layout</text>
</g>
<!-- ApplicationController&#45;&gt;CountriesController -->
<g id="edge2" class="edge"><title>ApplicationController&#45;&gt;CountriesController</title>
<path fill="none" stroke="black" d="M-41.4714,57.0995C-54.1193,91.5308 -71.936,140.033 -87.3399,181.967"/>
</g>
<!-- MarkersController -->
<g id="node5" class="node"><title>MarkersController</title>
<path fill="none" stroke="black" d="M-166.876,-158.25C-166.876,-158.25 -70.6826,-158.25 -70.6826,-158.25 -64.6826,-158.25 -58.6826,-164.25 -58.6826,-170.25 -58.6826,-170.25 -58.6826,-320.25 -58.6826,-320.25 -58.6826,-326.25 -64.6826,-332.25 -70.6826,-332.25 -70.6826,-332.25 -166.876,-332.25 -166.876,-332.25 -172.876,-332.25 -178.876,-326.25 -178.876,-320.25 -178.876,-320.25 -178.876,-170.25 -178.876,-170.25 -178.876,-164.25 -172.876,-158.25 -166.876,-158.25"/>
<text text-anchor="middle" x="-118.779" y="-317.05" font-family="Times,serif" font-size="14.00">MarkersController</text>
<polyline fill="none" stroke="black" points="-178.876,-310.25 -58.6826,-310.25 "/>
<text text-anchor="start" x="-170.876" y="-295.05" font-family="Times,serif" font-size="14.00">create</text>
<text text-anchor="start" x="-170.876" y="-281.05" font-family="Times,serif" font-size="14.00">destroy</text>
<text text-anchor="start" x="-170.876" y="-267.05" font-family="Times,serif" font-size="14.00">edit</text>
<text text-anchor="start" x="-170.876" y="-253.05" font-family="Times,serif" font-size="14.00">index</text>
<text text-anchor="start" x="-170.876" y="-239.05" font-family="Times,serif" font-size="14.00">new</text>
<text text-anchor="start" x="-170.876" y="-225.05" font-family="Times,serif" font-size="14.00">show</text>
<text text-anchor="start" x="-170.876" y="-211.05" font-family="Times,serif" font-size="14.00">update</text>
<polyline fill="none" stroke="black" points="-178.876,-204.25 -58.6826,-204.25 "/>
<polyline fill="none" stroke="black" points="-178.876,-180.25 -58.6826,-180.25 "/>
<text text-anchor="start" x="-170.876" y="-165.05" font-family="Times,serif" font-size="14.00">_layout</text>
</g>
<!-- ApplicationController&#45;&gt;MarkersController -->
<g id="edge3" class="edge"><title>ApplicationController&#45;&gt;MarkersController</title>
<path fill="none" stroke="black" d="M-41.3656,-33.0987C-53.9328,-67.539 -71.6358,-116.054 -86.9413,-157.998"/>
</g>
<!-- MediaController -->
<g id="node6" class="node"><title>MediaController</title>
<path fill="none" stroke="black" d="M27.5785,-158.171C27.5785,-158.171 112.889,-158.171 112.889,-158.171 118.889,-158.171 124.889,-164.171 124.889,-170.171 124.889,-170.171 124.889,-320.171 124.889,-320.171 124.889,-326.171 118.889,-332.171 112.889,-332.171 112.889,-332.171 27.5785,-332.171 27.5785,-332.171 21.5785,-332.171 15.5785,-326.171 15.5785,-320.171 15.5785,-320.171 15.5785,-170.171 15.5785,-170.171 15.5785,-164.171 21.5785,-158.171 27.5785,-158.171"/>
<text text-anchor="middle" x="70.2337" y="-316.971" font-family="Times,serif" font-size="14.00">MediaController</text>
<polyline fill="none" stroke="black" points="15.5785,-310.171 124.889,-310.171 "/>
<text text-anchor="start" x="23.5785" y="-294.971" font-family="Times,serif" font-size="14.00">create</text>
<text text-anchor="start" x="23.5785" y="-280.971" font-family="Times,serif" font-size="14.00">destroy</text>
<text text-anchor="start" x="23.5785" y="-266.971" font-family="Times,serif" font-size="14.00">edit</text>
<text text-anchor="start" x="23.5785" y="-252.971" font-family="Times,serif" font-size="14.00">index</text>
<text text-anchor="start" x="23.5785" y="-238.971" font-family="Times,serif" font-size="14.00">new</text>
<text text-anchor="start" x="23.5785" y="-224.971" font-family="Times,serif" font-size="14.00">show</text>
<text text-anchor="start" x="23.5785" y="-210.971" font-family="Times,serif" font-size="14.00">update</text>
<polyline fill="none" stroke="black" points="15.5785,-204.171 124.889,-204.171 "/>
<polyline fill="none" stroke="black" points="15.5785,-180.171 124.889,-180.171 "/>
<text text-anchor="start" x="23.5785" y="-164.971" font-family="Times,serif" font-size="14.00">_layout</text>
</g>
<!-- ApplicationController&#45;&gt;MediaController -->
<g id="edge4" class="edge"><title>ApplicationController&#45;&gt;MediaController</title>
<path fill="none" stroke="black" d="M-8.22578,-33.0849C4.5112,-67.5146 22.4533,-116.014 37.9656,-157.946"/>
</g>
<!-- ResortsController -->
<g id="node8" class="node"><title>ResortsController</title>
<path fill="none" stroke="black" d="M-384.994,-161.328C-384.994,-161.328 -293.449,-161.328 -293.449,-161.328 -287.449,-161.328 -281.449,-167.328 -281.449,-173.328 -281.449,-173.328 -281.449,-323.328 -281.449,-323.328 -281.449,-329.328 -287.449,-335.328 -293.449,-335.328 -293.449,-335.328 -384.994,-335.328 -384.994,-335.328 -390.994,-335.328 -396.994,-329.328 -396.994,-323.328 -396.994,-323.328 -396.994,-173.328 -396.994,-173.328 -396.994,-167.328 -390.994,-161.328 -384.994,-161.328"/>
<text text-anchor="middle" x="-339.221" y="-320.128" font-family="Times,serif" font-size="14.00">ResortsController</text>
<polyline fill="none" stroke="black" points="-396.994,-313.328 -281.449,-313.328 "/>
<text text-anchor="start" x="-388.994" y="-298.128" font-family="Times,serif" font-size="14.00">create</text>
<text text-anchor="start" x="-388.994" y="-284.128" font-family="Times,serif" font-size="14.00">destroy</text>
<text text-anchor="start" x="-388.994" y="-270.128" font-family="Times,serif" font-size="14.00">edit</text>
<text text-anchor="start" x="-388.994" y="-256.128" font-family="Times,serif" font-size="14.00">index</text>
<text text-anchor="start" x="-388.994" y="-242.128" font-family="Times,serif" font-size="14.00">new</text>
<text text-anchor="start" x="-388.994" y="-228.128" font-family="Times,serif" font-size="14.00">show</text>
<text text-anchor="start" x="-388.994" y="-214.128" font-family="Times,serif" font-size="14.00">update</text>
<polyline fill="none" stroke="black" points="-396.994,-207.328 -281.449,-207.328 "/>
<polyline fill="none" stroke="black" points="-396.994,-183.328 -281.449,-183.328 "/>
<text text-anchor="start" x="-388.994" y="-168.128" font-family="Times,serif" font-size="14.00">_layout</text>
</g>
<!-- ApplicationController&#45;&gt;ResortsController -->
<g id="edge6" class="edge"><title>ApplicationController&#45;&gt;ResortsController</title>
<path fill="none" stroke="black" d="M-79.2975,-33.0433C-135.699,-79.7583 -223.546,-152.519 -281.24,-200.305"/>
</g>
<!-- RunsController -->
<g id="node9" class="node"><title>RunsController</title>
<path fill="none" stroke="black" d="M-396.204,112.886C-396.204,112.886 -210.569,112.886 -210.569,112.886 -204.569,112.886 -198.569,106.886 -198.569,100.886 -198.569,100.886 -198.569,-77.1143 -198.569,-77.1143 -198.569,-83.1143 -204.569,-89.1143 -210.569,-89.1143 -210.569,-89.1143 -396.204,-89.1143 -396.204,-89.1143 -402.204,-89.1143 -408.204,-83.1143 -408.204,-77.1143 -408.204,-77.1143 -408.204,100.886 -408.204,100.886 -408.204,106.886 -402.204,112.886 -396.204,112.886"/>
<text text-anchor="middle" x="-303.386" y="-73.9143" font-family="Times,serif" font-size="14.00">RunsController</text>
<polyline fill="none" stroke="black" points="-408.204,-67.1143 -198.569,-67.1143 "/>
<text text-anchor="start" x="-400.204" y="-51.9143" font-family="Times,serif" font-size="14.00">_one_time_conditions_valid_278?</text>
<text text-anchor="start" x="-400.204" y="-37.9143" font-family="Times,serif" font-size="14.00">create</text>
<text text-anchor="start" x="-400.204" y="-23.9143" font-family="Times,serif" font-size="14.00">destroy</text>
<text text-anchor="start" x="-400.204" y="-9.91425" font-family="Times,serif" font-size="14.00">edit</text>
<text text-anchor="start" x="-400.204" y="4.08575" font-family="Times,serif" font-size="14.00">get_data</text>
<text text-anchor="start" x="-400.204" y="18.0857" font-family="Times,serif" font-size="14.00">index</text>
<text text-anchor="start" x="-400.204" y="32.0857" font-family="Times,serif" font-size="14.00">new</text>
<text text-anchor="start" x="-400.204" y="46.0857" font-family="Times,serif" font-size="14.00">show</text>
<text text-anchor="start" x="-400.204" y="60.0857" font-family="Times,serif" font-size="14.00">update</text>
<polyline fill="none" stroke="black" points="-408.204,66.8857 -198.569,66.8857 "/>
<polyline fill="none" stroke="black" points="-408.204,90.8857 -198.569,90.8857 "/>
<text text-anchor="start" x="-400.204" y="106.086" font-family="Times,serif" font-size="14.00">_layout</text>
</g>
<!-- ApplicationController&#45;&gt;RunsController -->
<g id="edge7" class="edge"><title>ApplicationController&#45;&gt;RunsController</title>
<path fill="none" stroke="black" d="M-123.088,11.9638C-147.517,11.9532 -173.797,11.9418 -198.533,11.9311"/>
</g>
<!-- SegmentsController -->
<g id="node10" class="node"><title>SegmentsController</title>
<path fill="none" stroke="black" d="M201.181,64.2978C201.181,64.2978 305.167,64.2978 305.167,64.2978 311.167,64.2978 317.167,58.2978 317.167,52.2978 317.167,52.2978 317.167,-27.7022 317.167,-27.7022 317.167,-33.7022 311.167,-39.7022 305.167,-39.7022 305.167,-39.7022 201.181,-39.7022 201.181,-39.7022 195.181,-39.7022 189.181,-33.7022 189.181,-27.7022 189.181,-27.7022 189.181,52.2978 189.181,52.2978 189.181,58.2978 195.181,64.2978 201.181,64.2978"/>
<text text-anchor="middle" x="253.174" y="-24.5022" font-family="Times,serif" font-size="14.00">SegmentsController</text>
<polyline fill="none" stroke="black" points="189.181,-17.7022 317.167,-17.7022 "/>
<text text-anchor="start" x="197.181" y="-2.50216" font-family="Times,serif" font-size="14.00">create</text>
<text text-anchor="start" x="197.181" y="11.4978" font-family="Times,serif" font-size="14.00">new</text>
<polyline fill="none" stroke="black" points="189.181,18.2978 317.167,18.2978 "/>
<polyline fill="none" stroke="black" points="189.181,42.2978 317.167,42.2978 "/>
<text text-anchor="start" x="197.181" y="57.4978" font-family="Times,serif" font-size="14.00">_layout</text>
</g>
<!-- ApplicationController&#45;&gt;SegmentsController -->
<g id="edge8" class="edge"><title>ApplicationController&#45;&gt;SegmentsController</title>
<path fill="none" stroke="black" d="M73.1341,12.1091C111.601,12.1494 154.666,12.1946 189.03,12.2306"/>
</g>
<!-- StuffController -->
<g id="node11" class="node"><title>StuffController</title>
<path fill="none" stroke="black" d="M-378.111,317.276C-378.111,317.276 -300.812,317.276 -300.812,317.276 -294.812,317.276 -288.812,311.276 -288.812,305.276 -288.812,305.276 -288.812,239.276 -288.812,239.276 -288.812,233.276 -294.812,227.276 -300.812,227.276 -300.812,227.276 -378.111,227.276 -378.111,227.276 -384.111,227.276 -390.111,233.276 -390.111,239.276 -390.111,239.276 -390.111,305.276 -390.111,305.276 -390.111,311.276 -384.111,317.276 -378.111,317.276"/>
<text text-anchor="middle" x="-339.461" y="242.476" font-family="Times,serif" font-size="14.00">StuffController</text>
<polyline fill="none" stroke="black" points="-390.111,249.276 -288.812,249.276 "/>
<text text-anchor="start" x="-382.111" y="264.476" font-family="Times,serif" font-size="14.00">index</text>
<polyline fill="none" stroke="black" points="-390.111,271.276 -288.812,271.276 "/>
<polyline fill="none" stroke="black" points="-390.111,295.276 -288.812,295.276 "/>
<text text-anchor="start" x="-382.111" y="310.476" font-family="Times,serif" font-size="14.00">_layout</text>
</g>
<!-- ApplicationController&#45;&gt;StuffController -->
<g id="edge9" class="edge"><title>ApplicationController&#45;&gt;StuffController</title>
<path fill="none" stroke="black" d="M-79.339,57.0446C-138.157,105.712 -231.149,182.655 -288.556,230.155"/>
</g>
<!-- TrackController -->
<g id="node12" class="node"><title>TrackController</title>
<path fill="none" stroke="black" d="M196.424,324.443C196.424,324.443 382.059,324.443 382.059,324.443 388.059,324.443 394.059,318.443 394.059,312.443 394.059,312.443 394.059,232.443 394.059,232.443 394.059,226.443 388.059,220.443 382.059,220.443 382.059,220.443 196.424,220.443 196.424,220.443 190.424,220.443 184.424,226.443 184.424,232.443 184.424,232.443 184.424,312.443 184.424,312.443 184.424,318.443 190.424,324.443 196.424,324.443"/>
<text text-anchor="middle" x="289.242" y="235.643" font-family="Times,serif" font-size="14.00">TrackController</text>
<polyline fill="none" stroke="black" points="184.424,242.443 394.059,242.443 "/>
<text text-anchor="start" x="192.424" y="257.643" font-family="Times,serif" font-size="14.00">_one_time_conditions_valid_296?</text>
<text text-anchor="start" x="192.424" y="271.643" font-family="Times,serif" font-size="14.00">index</text>
<polyline fill="none" stroke="black" points="184.424,278.443 394.059,278.443 "/>
<polyline fill="none" stroke="black" points="184.424,302.443 394.059,302.443 "/>
<text text-anchor="start" x="192.424" y="317.643" font-family="Times,serif" font-size="14.00">_layout</text>
</g>
<!-- ApplicationController&#45;&gt;TrackController -->
<g id="edge10" class="edge"><title>ApplicationController&#45;&gt;TrackController</title>
<path fill="none" stroke="black" d="M29.455,57.0736C84.2459,102.497 168.729,172.535 226.371,220.322"/>
</g>
<!-- UserController -->
<g id="node13" class="node"><title>UserController</title>
<path fill="none" stroke="black" d="M-23.2522,328.367C-23.2522,328.367 162.383,328.367 162.383,328.367 168.383,328.367 174.383,322.367 174.383,316.367 174.383,316.367 174.383,222.367 174.383,222.367 174.383,216.367 168.383,210.367 162.383,210.367 162.383,210.367 -23.2522,210.367 -23.2522,210.367 -29.2522,210.367 -35.2522,216.367 -35.2522,222.367 -35.2522,222.367 -35.2522,316.367 -35.2522,316.367 -35.2522,322.367 -29.2522,328.367 -23.2522,328.367"/>
<text text-anchor="middle" x="69.5652" y="225.567" font-family="Times,serif" font-size="14.00">UserController</text>
<polyline fill="none" stroke="black" points="-35.2522,232.367 174.383,232.367 "/>
<text text-anchor="start" x="-27.2522" y="247.567" font-family="Times,serif" font-size="14.00">_one_time_conditions_valid_298?</text>
<text text-anchor="start" x="-27.2522" y="261.567" font-family="Times,serif" font-size="14.00">index</text>
<text text-anchor="start" x="-27.2522" y="275.567" font-family="Times,serif" font-size="14.00">show</text>
<polyline fill="none" stroke="black" points="-35.2522,282.367 174.383,282.367 "/>
<polyline fill="none" stroke="black" points="-35.2522,306.367 174.383,306.367 "/>
<text text-anchor="start" x="-27.2522" y="321.567" font-family="Times,serif" font-size="14.00">_layout</text>
</g>
<!-- ApplicationController&#45;&gt;UserController -->
<g id="edge11" class="edge"><title>ApplicationController&#45;&gt;UserController</title>
<path fill="none" stroke="black" d="M-8.34299,57.1295C7.26791,99.6567 30.7532,163.635 47.8564,210.228"/>
</g>
<!-- OmniauthCallbacksController -->
<g id="node7" class="node"><title>OmniauthCallbacksController</title>
<path fill="none" stroke="black" d="M420.106,152.68C420.106,152.68 580.851,152.68 580.851,152.68 586.851,152.68 592.851,146.68 592.851,140.68 592.851,140.68 592.851,46.6802 592.851,46.6802 592.851,40.6802 586.851,34.6802 580.851,34.6802 580.851,34.6802 420.106,34.6802 420.106,34.6802 414.106,34.6802 408.106,40.6802 408.106,46.6802 408.106,46.6802 408.106,140.68 408.106,140.68 408.106,146.68 414.106,152.68 420.106,152.68"/>
<text text-anchor="middle" x="500.478" y="49.8802" font-family="Times,serif" font-size="14.00">OmniauthCallbacksController</text>
<polyline fill="none" stroke="black" points="408.106,56.6802 592.851,56.6802 "/>
<text text-anchor="start" x="416.106" y="71.8802" font-family="Times,serif" font-size="14.00">github</text>
<text text-anchor="start" x="416.106" y="85.8802" font-family="Times,serif" font-size="14.00">google_oauth2</text>
<text text-anchor="start" x="416.106" y="99.8802" font-family="Times,serif" font-size="14.00">handle_callback</text>
<polyline fill="none" stroke="black" points="408.106,106.68 592.851,106.68 "/>
<polyline fill="none" stroke="black" points="408.106,130.68 592.851,130.68 "/>
<text text-anchor="start" x="416.106" y="145.88" font-family="Times,serif" font-size="14.00">_layout</text>
</g>
<!-- Devise::OmniauthCallbacksController -->
<g id="node14" class="node"><title>Devise::OmniauthCallbacksController</title>
<ellipse fill="none" stroke="black" cx="756.05" cy="93.6807" rx="146.34" ry="18"/>
<text text-anchor="middle" x="756.05" y="97.8807" font-family="Times,serif" font-size="14.00">Devise::OmniauthCallbacksController</text>
</g>
<!-- Devise::OmniauthCallbacksController&#45;&gt;OmniauthCallbacksController -->
<g id="edge5" class="edge"><title>Devise::OmniauthCallbacksController&#45;&gt;OmniauthCallbacksController</title>
<path fill="none" stroke="black" d="M609.605,93.6804C604.029,93.6804 598.501,93.6804 593.065,93.6804"/>
</g>
</g>
</svg>
