<?xml version="1.0" encoding="UTF-8" standalone="no"?>
<!DOCTYPE svg PUBLIC "-//W3C//DTD SVG 1.1//EN"
 "http://www.w3.org/Graphics/SVG/1.1/DTD/svg11.dtd">
<!-- Generated by graphviz version 2.38.0 (20140413.2041)
 -->
<!-- Title: models_diagram Pages: 1 -->
<svg width="813pt" height="441pt"
 viewBox="0.00 0.00 812.59 441.00" xmlns="http://www.w3.org/2000/svg" xmlns:xlink="http://www.w3.org/1999/xlink">
<g id="graph0" class="graph" transform="scale(1 1) rotate(0) translate(4 437)">
<title>models_diagram</title>
<polygon fill="white" stroke="none" points="-4,4 -4,-437 808.595,-437 808.595,4 -4,4"/>
<!-- _diagram_info -->
<g id="node1" class="node"><title>_diagram_info</title>
<text text-anchor="start" x="8" y="-418.6" font-family="Times,serif" font-size="13.00">Models diagram</text>
<text text-anchor="start" x="8" y="-405.6" font-family="Times,serif" font-size="13.00">Date: Sep 14 2014 &#45; 17:03</text>
<text text-anchor="start" x="8" y="-392.6" font-family="Times,serif" font-size="13.00">Migration version: 20140910101228</text>
<text text-anchor="start" x="8" y="-379.6" font-family="Times,serif" font-size="13.00">Generated by RailRoady 1.1.1</text>
<text text-anchor="start" x="8" y="-366.6" font-family="Times,serif" font-size="13.00">http://railroady.prestonlee.com</text>
</g>
<!-- Ability -->
<g id="node2" class="node"><title>Ability</title>
<polygon fill="none" stroke="black" points="286.358,-324 231.018,-324 231.018,-288 286.358,-288 286.358,-324"/>
<text text-anchor="middle" x="258.688" y="-301.8" font-family="Times,serif" font-size="14.00">Ability</text>
</g>
<!-- Authentication -->
<g id="node3" class="node"><title>Authentication</title>
<ellipse fill="none" stroke="black" cx="405.688" cy="-234" rx="62.8252" ry="18"/>
<text text-anchor="middle" x="405.688" y="-229.8" font-family="Times,serif" font-size="14.00">Authentication</text>
</g>
<!-- Comment -->
<g id="node4" class="node"><title>Comment</title>
<ellipse fill="none" stroke="black" cx="493.688" cy="-90" rx="44.9768" ry="18"/>
<text text-anchor="middle" x="493.688" y="-85.8" font-family="Times,serif" font-size="14.00">Comment</text>
</g>
<!-- Country -->
<g id="node5" class="node"><title>Country</title>
<ellipse fill="none" stroke="black" cx="591.688" cy="-306" rx="39.1887" ry="18"/>
<text text-anchor="middle" x="591.688" y="-301.8" font-family="Times,serif" font-size="14.00">Country</text>
</g>
<!-- Resort -->
<g id="node8" class="node"><title>Resort</title>
<ellipse fill="none" stroke="black" cx="595.688" cy="-234" rx="33.3925" ry="18"/>
<text text-anchor="middle" x="595.688" y="-229.8" font-family="Times,serif" font-size="14.00">Resort</text>
</g>
<!-- Country&#45;&gt;Resort -->
<g id="edge4" class="edge"><title>Country&#45;&gt;Resort</title>
<path fill="none" stroke="#6679bd" d="M593.137,-279.64C593.456,-274.063 593.794,-268.132 594.118,-262.476"/>
<ellipse fill="none" stroke="#6679bd" cx="592.905" cy="-283.703" rx="4" ry="4"/>
<polygon fill="#6679bd" stroke="#6679bd" points="594.14,-262.088 599.203,-252.361 594.425,-257.096 594.71,-252.104 594.71,-252.104 594.71,-252.104 594.425,-257.096 590.218,-251.848 594.14,-262.088 594.14,-262.088"/>
</g>
<!-- Marker -->
<g id="node6" class="node"><title>Marker</title>
<ellipse fill="none" stroke="black" cx="635.688" cy="-18" rx="36.2645" ry="18"/>
<text text-anchor="middle" x="635.688" y="-13.8" font-family="Times,serif" font-size="14.00">Marker</text>
</g>
<!-- Medium -->
<g id="node7" class="node"><title>Medium</title>
<ellipse fill="none" stroke="black" cx="734.688" cy="-90" rx="40.149" ry="18"/>
<text text-anchor="middle" x="734.688" y="-85.8" font-family="Times,serif" font-size="14.00">Medium</text>
</g>
<!-- Run -->
<g id="node9" class="node"><title>Run</title>
<ellipse fill="none" stroke="black" cx="595.688" cy="-162" rx="27" ry="18"/>
<text text-anchor="middle" x="595.688" y="-157.8" font-family="Times,serif" font-size="14.00">Run</text>
</g>
<!-- Resort&#45;&gt;Run -->
<g id="edge8" class="edge"><title>Resort&#45;&gt;Run</title>
<path fill="none" stroke="#2d7f83" d="M595.688,-207.64C595.688,-202.063 595.688,-196.132 595.688,-190.476"/>
<ellipse fill="none" stroke="#2d7f83" cx="595.688" cy="-211.697" rx="4" ry="4"/>
<polygon fill="#2d7f83" stroke="#2d7f83" points="595.688,-190.104 600.188,-180.104 595.688,-185.104 595.688,-180.104 595.688,-180.104 595.688,-180.104 595.688,-185.104 591.188,-180.104 595.688,-190.104 595.688,-190.104"/>
</g>
<!-- Run&#45;&gt;Comment -->
<g id="edge12" class="edge"><title>Run&#45;&gt;Comment</title>
<path fill="none" stroke="#c8801f" d="M570.538,-143.74C556.369,-134.016 538.582,-121.809 523.689,-111.589"/>
<ellipse fill="none" stroke="#c8801f" cx="574.154" cy="-146.222" rx="4.00002" ry="4.00002"/>
<polygon fill="#c8801f" stroke="#c8801f" points="523.549,-111.493 517.85,-102.124 519.426,-108.664 515.304,-105.834 515.304,-105.834 515.304,-105.834 519.426,-108.664 512.757,-109.545 523.549,-111.493 523.549,-111.493"/>
</g>
<!-- Run&#45;&gt;Marker -->
<g id="edge11" class="edge"><title>Run&#45;&gt;Marker</title>
<path fill="none" stroke="#d4a192" d="M586.285,-134.641C581.32,-116.448 577.733,-92.0242 585.688,-72 590.504,-59.8765 599.554,-48.9199 608.644,-40.1575"/>
<polygon fill="#d4a192" stroke="#d4a192" points="586.31,-134.724 584.898,-145.598 587.757,-139.51 589.205,-144.296 589.205,-144.296 589.205,-144.296 587.757,-139.51 593.512,-142.993 586.31,-134.724 586.31,-134.724"/>
<polygon fill="#d4a192" stroke="#d4a192" points="608.777,-40.038 619.214,-36.6754 612.488,-36.6868 616.198,-33.3357 616.198,-33.3357 616.198,-33.3357 612.488,-36.6868 613.182,-29.996 608.777,-40.038 608.777,-40.038"/>
</g>
<!-- Run&#45;&gt;Medium -->
<g id="edge13" class="edge"><title>Run&#45;&gt;Medium</title>
<path fill="none" stroke="#3823e9" d="M623.85,-146.817C645.857,-135.735 676.549,-120.279 700.057,-108.44"/>
<ellipse fill="none" stroke="#3823e9" cx="620.07" cy="-148.721" rx="4.00002" ry="4.00002"/>
<polygon fill="#3823e9" stroke="#3823e9" points="700.07,-108.433 711.026,-107.954 704.536,-106.184 709.002,-103.935 709.002,-103.935 709.002,-103.935 704.536,-106.184 706.978,-99.9162 700.07,-108.433 700.07,-108.433"/>
</g>
<!-- Segment -->
<g id="node10" class="node"><title>Segment</title>
<ellipse fill="none" stroke="black" cx="635.688" cy="-90" rx="41.1093" ry="18"/>
<text text-anchor="middle" x="635.688" y="-85.8" font-family="Times,serif" font-size="14.00">Segment</text>
</g>
<!-- Run&#45;&gt;Segment -->
<g id="edge10" class="edge"><title>Run&#45;&gt;Segment</title>
<path fill="none" stroke="#4d3189" d="M609.068,-137.585C612.924,-130.837 617.15,-123.441 621.077,-116.569"/>
<ellipse fill="none" stroke="#4d3189" cx="606.95" cy="-141.292" rx="4.00002" ry="4.00002"/>
<polygon fill="#4d3189" stroke="#4d3189" points="621.222,-116.316 630.09,-109.866 623.702,-111.975 626.183,-107.633 626.183,-107.633 626.183,-107.633 623.702,-111.975 622.276,-105.401 621.222,-116.316 621.222,-116.316"/>
</g>
<!-- Segment&#45;&gt;Marker -->
<g id="edge15" class="edge"><title>Segment&#45;&gt;Marker</title>
<path fill="none" stroke="#41bd9b" d="M635.688,-63.6398C635.688,-58.0629 635.688,-52.1319 635.688,-46.4761"/>
<ellipse fill="none" stroke="#41bd9b" cx="635.688" cy="-67.6966" rx="4" ry="4"/>
<polygon fill="#41bd9b" stroke="#41bd9b" points="635.688,-46.1043 640.188,-36.1043 635.688,-41.1043 635.688,-36.1043 635.688,-36.1043 635.688,-36.1043 635.688,-41.1043 631.188,-36.1044 635.688,-46.1043 635.688,-46.1043"/>
</g>
<!-- User -->
<g id="node11" class="node"><title>User</title>
<ellipse fill="none" stroke="black" cx="469.688" cy="-306" rx="27" ry="18"/>
<text text-anchor="middle" x="469.688" y="-301.8" font-family="Times,serif" font-size="14.00">User</text>
</g>
<!-- User&#45;&gt;Authentication -->
<g id="edge19" class="edge"><title>User&#45;&gt;Authentication</title>
<path fill="none" stroke="#bf4338" d="M450.514,-284.028C443.445,-276.297 435.377,-267.472 428.051,-259.46"/>
<ellipse fill="none" stroke="#bf4338" cx="453.416" cy="-287.203" rx="4.00002" ry="4.00002"/>
<polygon fill="#bf4338" stroke="#bf4338" points="427.785,-259.169 424.359,-248.753 424.412,-255.479 421.038,-251.789 421.038,-251.789 421.038,-251.789 424.412,-255.479 417.717,-254.825 427.785,-259.169 427.785,-259.169"/>
</g>
<!-- User&#45;&gt;Comment -->
<g id="edge18" class="edge"><title>User&#45;&gt;Comment</title>
<path fill="none" stroke="#db9f83" d="M473.754,-279.833C475.103,-271.041 476.55,-261.097 477.688,-252 483.545,-205.173 488.605,-150.466 491.392,-118.39"/>
<ellipse fill="none" stroke="#db9f83" cx="473.12" cy="-283.893" rx="4.00001" ry="4.00001"/>
<polygon fill="#db9f83" stroke="#db9f83" points="491.392,-118.388 496.732,-108.809 491.82,-113.406 492.248,-108.424 492.248,-108.424 492.248,-108.424 491.82,-113.406 487.765,-108.039 491.392,-118.388 491.392,-118.388"/>
</g>
<!-- User&#45;&gt;Run -->
<g id="edge17" class="edge"><title>User&#45;&gt;Run</title>
<path fill="none" stroke="#02d16d" d="M488.403,-283.908C511.686,-257.669 551.294,-213.031 575.319,-185.955"/>
<ellipse fill="none" stroke="#02d16d" cx="485.589" cy="-287.08" rx="4.00002" ry="4.00002"/>
<polygon fill="#02d16d" stroke="#02d16d" points="575.603,-185.635 585.606,-181.142 578.921,-181.895 582.24,-178.155 582.24,-178.155 582.24,-178.155 578.921,-181.895 578.874,-175.169 575.603,-185.635 575.603,-185.635"/>
</g>
<!-- Object -->
<g id="node12" class="node"><title>Object</title>
<ellipse fill="none" stroke="black" cx="258.688" cy="-396.5" rx="33.8596" ry="18"/>
<text text-anchor="middle" x="258.688" y="-392.3" font-family="Times,serif" font-size="14.00">Object</text>
</g>
<!-- Object&#45;&gt;Ability -->
<g id="edge1" class="edge"><title>Object&#45;&gt;Ability</title>
<path fill="none" stroke="black" d="M258.688,-378.436C258.688,-362.765 258.688,-339.666 258.688,-324.011"/>
</g>
<!-- ActiveRecord::Base -->
<g id="node13" class="node"><title>ActiveRecord::Base</title>
<ellipse fill="none" stroke="black" cx="591.688" cy="-396.5" rx="81.1422" ry="18"/>
<text text-anchor="middle" x="591.688" y="-392.3" font-family="Times,serif" font-size="14.00">ActiveRecord::Base</text>
</g>
<!-- ActiveRecord::Base&#45;&gt;Authentication -->
<g id="edge2" class="edge"><title>ActiveRecord::Base&#45;&gt;Authentication</title>
<path fill="none" stroke="black" d="M537.233,-383.064C503.116,-372.635 460.652,-354.415 433.688,-324 415.636,-303.637 409.218,-271.671 406.939,-252.101"/>
</g>
<!-- ActiveRecord::Base&#45;&gt;Comment -->
<g id="edge3" class="edge"><title>ActiveRecord::Base&#45;&gt;Comment</title>
<path fill="none" stroke="black" d="M532.559,-384.031C467.648,-367.696 368.069,-330.525 333.688,-252 303.421,-182.872 407.968,-127.074 462.571,-103.346"/>
</g>
<!-- ActiveRecord::Base&#45;&gt;Country -->
<g id="edge5" class="edge"><title>ActiveRecord::Base&#45;&gt;Country</title>
<path fill="none" stroke="black" d="M591.688,-378.436C591.688,-362.765 591.688,-339.666 591.688,-324.011"/>
</g>
<!-- ActiveRecord::Base&#45;&gt;Marker -->
<g id="edge6" class="edge"><title>ActiveRecord::Base&#45;&gt;Marker</title>
<path fill="none" stroke="black" d="M640.626,-382.006C702.957,-361.489 802.688,-316.005 802.688,-235 802.688,-235 802.688,-235 802.688,-161 802.688,-120.553 810.316,-102.445 783.688,-72 755.119,-39.3361 704.946,-26.8018 671.026,-21.9926"/>
</g>
<!-- ActiveRecord::Base&#45;&gt;Medium -->
<g id="edge7" class="edge"><title>ActiveRecord::Base&#45;&gt;Medium</title>
<path fill="none" stroke="black" d="M617.928,-379.24C636.458,-366.431 660.437,-346.941 674.688,-324 719.212,-252.326 730.829,-148.692 733.748,-108.161"/>
</g>
<!-- ActiveRecord::Base&#45;&gt;Resort -->
<g id="edge9" class="edge"><title>ActiveRecord::Base&#45;&gt;Resort</title>
<path fill="none" stroke="black" d="M574.954,-378.517C556.325,-357.45 530.466,-320.354 543.688,-288 550.222,-272.01 564.163,-258.238 575.966,-248.744"/>
</g>
<!-- ActiveRecord::Base&#45;&gt;Run -->
<g id="edge14" class="edge"><title>ActiveRecord::Base&#45;&gt;Run</title>
<path fill="none" stroke="black" d="M607.136,-378.808C618.611,-365.201 633.329,-344.882 639.688,-324 644.381,-308.589 643.967,-233.258 637.688,-216 632.229,-200.995 620.716,-186.975 611.123,-177.128"/>
</g>
<!-- ActiveRecord::Base&#45;&gt;Segment -->
<g id="edge16" class="edge"><title>ActiveRecord::Base&#45;&gt;Segment</title>
<path fill="none" stroke="black" d="M613.117,-379.013C628.21,-365.956 647.183,-346.253 655.688,-324 684.893,-247.582 655.732,-147.109 641.992,-107.794"/>
</g>
<!-- ActiveRecord::Base&#45;&gt;User -->
<g id="edge20" class="edge"><title>ActiveRecord::Base&#45;&gt;User</title>
<path fill="none" stroke="black" d="M569.026,-379.061C545.459,-361.966 509.053,-335.556 487.476,-319.903"/>
</g>
</g>
</svg>
