<?xml version="1.0" encoding="UTF-8" standalone="no"?>
<!DOCTYPE svg PUBLIC "-//W3C//DTD SVG 1.1//EN"
 "http://www.w3.org/Graphics/SVG/1.1/DTD/svg11.dtd">
<!-- Generated by graphviz version 2.38.0 (20140413.2041)
 -->
<!-- Title: models_diagram Pages: 1 -->
<svg width="980pt" height="1144pt"
 viewBox="0.00 0.00 979.66 1144.00" xmlns="http://www.w3.org/2000/svg" xmlns:xlink="http://www.w3.org/1999/xlink">
<g id="graph0" class="graph" transform="scale(1 1) rotate(0) translate(4 1140)">
<title>models_diagram</title>
<polygon fill="white" stroke="none" points="-4,4 -4,-1140 975.664,-1140 975.664,4 -4,4"/>
<!-- _diagram_info -->
<g id="node1" class="node"><title>_diagram_info</title>
<text text-anchor="start" x="8" y="-1121.6" font-family="Times,serif" font-size="13.00">Models diagram</text>
<text text-anchor="start" x="8" y="-1108.6" font-family="Times,serif" font-size="13.00">Date: Sep 14 2014 &#45; 17:03</text>
<text text-anchor="start" x="8" y="-1095.6" font-family="Times,serif" font-size="13.00">Migration version: 20140910101228</text>
<text text-anchor="start" x="8" y="-1082.6" font-family="Times,serif" font-size="13.00">Generated by RailRoady 1.1.1</text>
<text text-anchor="start" x="8" y="-1069.6" font-family="Times,serif" font-size="13.00">http://railroady.prestonlee.com</text>
</g>
<!-- Ability -->
<g id="node2" class="node"><title>Ability</title>
<polygon fill="none" stroke="black" points="230.853,-870.5 230.853,-914.5 286.522,-914.5 286.522,-870.5 230.853,-870.5"/>
<text text-anchor="middle" x="258.688" y="-899.3" font-family="Times,serif" font-size="14.00">Ability</text>
<polyline fill="none" stroke="black" points="230.853,-892.5 286.522,-892.5 "/>
<text text-anchor="middle" x="258.688" y="-877.3" font-family="Times,serif" font-size="14.00"> </text>
</g>
<!-- Authentication -->
<g id="node3" class="node"><title>Authentication</title>
<path fill="none" stroke="black" d="M355.182,-600.5C355.182,-600.5 464.193,-600.5 464.193,-600.5 470.193,-600.5 476.193,-606.5 476.193,-612.5 476.193,-612.5 476.193,-702.5 476.193,-702.5 476.193,-708.5 470.193,-714.5 464.193,-714.5 464.193,-714.5 355.182,-714.5 355.182,-714.5 349.182,-714.5 343.182,-708.5 343.182,-702.5 343.182,-702.5 343.182,-612.5 343.182,-612.5 343.182,-606.5 349.182,-600.5 355.182,-600.5"/>
<text text-anchor="middle" x="409.688" y="-699.3" font-family="Times,serif" font-size="14.00">Authentication</text>
<polyline fill="none" stroke="black" points="343.182,-692.5 476.193,-692.5 "/>
<text text-anchor="start" x="351.182" y="-677.3" font-family="Times,serif" font-size="14.00">id :integer</text>
<text text-anchor="start" x="351.182" y="-663.3" font-family="Times,serif" font-size="14.00">provider :string</text>
<text text-anchor="start" x="351.182" y="-649.3" font-family="Times,serif" font-size="14.00">uid :string</text>
<text text-anchor="start" x="351.182" y="-635.3" font-family="Times,serif" font-size="14.00">user_id :integer</text>
<text text-anchor="start" x="351.182" y="-621.3" font-family="Times,serif" font-size="14.00">created_at :datetime</text>
<text text-anchor="start" x="351.182" y="-607.3" font-family="Times,serif" font-size="14.00">updated_at :datetime</text>
</g>
<!-- Comment -->
<g id="node4" class="node"><title>Comment</title>
<path fill="none" stroke="black" d="M450.182,-214.5C450.182,-214.5 559.193,-214.5 559.193,-214.5 565.193,-214.5 571.193,-220.5 571.193,-226.5 571.193,-226.5 571.193,-316.5 571.193,-316.5 571.193,-322.5 565.193,-328.5 559.193,-328.5 559.193,-328.5 450.182,-328.5 450.182,-328.5 444.182,-328.5 438.182,-322.5 438.182,-316.5 438.182,-316.5 438.182,-226.5 438.182,-226.5 438.182,-220.5 444.182,-214.5 450.182,-214.5"/>
<text text-anchor="middle" x="504.688" y="-313.3" font-family="Times,serif" font-size="14.00">Comment</text>
<polyline fill="none" stroke="black" points="438.182,-306.5 571.193,-306.5 "/>
<text text-anchor="start" x="446.182" y="-291.3" font-family="Times,serif" font-size="14.00">id :integer</text>
<text text-anchor="start" x="446.182" y="-277.3" font-family="Times,serif" font-size="14.00">content :string</text>
<text text-anchor="start" x="446.182" y="-263.3" font-family="Times,serif" font-size="14.00">user_id :integer</text>
<text text-anchor="start" x="446.182" y="-249.3" font-family="Times,serif" font-size="14.00">run_id :integer</text>
<text text-anchor="start" x="446.182" y="-235.3" font-family="Times,serif" font-size="14.00">created_at :datetime</text>
<text text-anchor="start" x="446.182" y="-221.3" font-family="Times,serif" font-size="14.00">updated_at :datetime</text>
</g>
<!-- Country -->
<g id="node5" class="node"><title>Country</title>
<path fill="none" stroke="black" d="M653.182,-849.5C653.182,-849.5 762.193,-849.5 762.193,-849.5 768.193,-849.5 774.193,-855.5 774.193,-861.5 774.193,-861.5 774.193,-923.5 774.193,-923.5 774.193,-929.5 768.193,-935.5 762.193,-935.5 762.193,-935.5 653.182,-935.5 653.182,-935.5 647.182,-935.5 641.182,-929.5 641.182,-923.5 641.182,-923.5 641.182,-861.5 641.182,-861.5 641.182,-855.5 647.182,-849.5 653.182,-849.5"/>
<text text-anchor="middle" x="707.688" y="-920.3" font-family="Times,serif" font-size="14.00">Country</text>
<polyline fill="none" stroke="black" points="641.182,-913.5 774.193,-913.5 "/>
<text text-anchor="start" x="649.182" y="-898.3" font-family="Times,serif" font-size="14.00">id :integer</text>
<text text-anchor="start" x="649.182" y="-884.3" font-family="Times,serif" font-size="14.00">name :string</text>
<text text-anchor="start" x="649.182" y="-870.3" font-family="Times,serif" font-size="14.00">created_at :datetime</text>
<text text-anchor="start" x="649.182" y="-856.3" font-family="Times,serif" font-size="14.00">updated_at :datetime</text>
</g>
<!-- Resort -->
<g id="node8" class="node"><title>Resort</title>
<path fill="none" stroke="black" d="M628.182,-593.5C628.182,-593.5 737.193,-593.5 737.193,-593.5 743.193,-593.5 749.193,-599.5 749.193,-605.5 749.193,-605.5 749.193,-709.5 749.193,-709.5 749.193,-715.5 743.193,-721.5 737.193,-721.5 737.193,-721.5 628.182,-721.5 628.182,-721.5 622.182,-721.5 616.182,-715.5 616.182,-709.5 616.182,-709.5 616.182,-605.5 616.182,-605.5 616.182,-599.5 622.182,-593.5 628.182,-593.5"/>
<text text-anchor="middle" x="682.688" y="-706.3" font-family="Times,serif" font-size="14.00">Resort</text>
<polyline fill="none" stroke="black" points="616.182,-699.5 749.193,-699.5 "/>
<text text-anchor="start" x="624.182" y="-684.3" font-family="Times,serif" font-size="14.00">id :integer</text>
<text text-anchor="start" x="624.182" y="-670.3" font-family="Times,serif" font-size="14.00">name :string</text>
<text text-anchor="start" x="624.182" y="-656.3" font-family="Times,serif" font-size="14.00">description :text</text>
<text text-anchor="start" x="624.182" y="-642.3" font-family="Times,serif" font-size="14.00">country_id :integer</text>
<text text-anchor="start" x="624.182" y="-628.3" font-family="Times,serif" font-size="14.00">image :text</text>
<text text-anchor="start" x="624.182" y="-614.3" font-family="Times,serif" font-size="14.00">created_at :datetime</text>
<text text-anchor="start" x="624.182" y="-600.3" font-family="Times,serif" font-size="14.00">updated_at :datetime</text>
</g>
<!-- Country&#45;&gt;Resort -->
<g id="edge4" class="edge"><title>Country&#45;&gt;Resort</title>
<path fill="none" stroke="#046d1e" d="M702.284,-841.142C698.872,-809.34 694.405,-767.704 690.597,-732.218"/>
<ellipse fill="none" stroke="#046d1e" cx="702.734" cy="-845.328" rx="4" ry="4"/>
<polygon fill="#046d1e" stroke="#046d1e" points="690.558,-731.848 693.965,-721.425 690.024,-726.876 689.491,-721.905 689.491,-721.905 689.491,-721.905 690.024,-726.876 685.017,-722.385 690.558,-731.848 690.558,-731.848"/>
</g>
<!-- Marker -->
<g id="node6" class="node"><title>Marker</title>
<path fill="none" stroke="black" d="M634.817,-0.5C634.817,-0.5 786.559,-0.5 786.559,-0.5 792.559,-0.5 798.559,-6.5 798.559,-12.5 798.559,-12.5 798.559,-158.5 798.559,-158.5 798.559,-164.5 792.559,-170.5 786.559,-170.5 786.559,-170.5 634.817,-170.5 634.817,-170.5 628.817,-170.5 622.817,-164.5 622.817,-158.5 622.817,-158.5 622.817,-12.5 622.817,-12.5 622.817,-6.5 628.817,-0.5 634.817,-0.5"/>
<text text-anchor="middle" x="710.688" y="-155.3" font-family="Times,serif" font-size="14.00">Marker</text>
<polyline fill="none" stroke="black" points="622.817,-148.5 798.559,-148.5 "/>
<text text-anchor="start" x="630.817" y="-133.3" font-family="Times,serif" font-size="14.00">id :integer</text>
<text text-anchor="start" x="630.817" y="-119.3" font-family="Times,serif" font-size="14.00">name :string</text>
<text text-anchor="start" x="630.817" y="-105.3" font-family="Times,serif" font-size="14.00">latitude :float</text>
<text text-anchor="start" x="630.817" y="-91.3" font-family="Times,serif" font-size="14.00">longitude :float</text>
<text text-anchor="start" x="630.817" y="-77.3" font-family="Times,serif" font-size="14.00">elevation :float</text>
<text text-anchor="start" x="630.817" y="-63.3" font-family="Times,serif" font-size="14.00">description :string</text>
<text text-anchor="start" x="630.817" y="-49.3" font-family="Times,serif" font-size="14.00">marker_created_at :datetime</text>
<text text-anchor="start" x="630.817" y="-35.3" font-family="Times,serif" font-size="14.00">segment_id :integer</text>
<text text-anchor="start" x="630.817" y="-21.3" font-family="Times,serif" font-size="14.00">created_at :datetime</text>
<text text-anchor="start" x="630.817" y="-7.3" font-family="Times,serif" font-size="14.00">updated_at :datetime</text>
</g>
<!-- Medium -->
<g id="node7" class="node"><title>Medium</title>
<path fill="none" stroke="black" d="M807.182,-207.5C807.182,-207.5 916.193,-207.5 916.193,-207.5 922.193,-207.5 928.193,-213.5 928.193,-219.5 928.193,-219.5 928.193,-323.5 928.193,-323.5 928.193,-329.5 922.193,-335.5 916.193,-335.5 916.193,-335.5 807.182,-335.5 807.182,-335.5 801.182,-335.5 795.182,-329.5 795.182,-323.5 795.182,-323.5 795.182,-219.5 795.182,-219.5 795.182,-213.5 801.182,-207.5 807.182,-207.5"/>
<text text-anchor="middle" x="861.688" y="-320.3" font-family="Times,serif" font-size="14.00">Medium</text>
<polyline fill="none" stroke="black" points="795.182,-313.5 928.193,-313.5 "/>
<text text-anchor="start" x="803.182" y="-298.3" font-family="Times,serif" font-size="14.00">id :integer</text>
<text text-anchor="start" x="803.182" y="-284.3" font-family="Times,serif" font-size="14.00">image :string</text>
<text text-anchor="start" x="803.182" y="-270.3" font-family="Times,serif" font-size="14.00">video :string</text>
<text text-anchor="start" x="803.182" y="-256.3" font-family="Times,serif" font-size="14.00">user_id :integer</text>
<text text-anchor="start" x="803.182" y="-242.3" font-family="Times,serif" font-size="14.00">run_id :integer</text>
<text text-anchor="start" x="803.182" y="-228.3" font-family="Times,serif" font-size="14.00">created_at :datetime</text>
<text text-anchor="start" x="803.182" y="-214.3" font-family="Times,serif" font-size="14.00">updated_at :datetime</text>
</g>
<!-- Run -->
<g id="node9" class="node"><title>Run</title>
<path fill="none" stroke="black" d="M614.182,-372.5C614.182,-372.5 751.193,-372.5 751.193,-372.5 757.193,-372.5 763.193,-378.5 763.193,-384.5 763.193,-384.5 763.193,-544.5 763.193,-544.5 763.193,-550.5 757.193,-556.5 751.193,-556.5 751.193,-556.5 614.182,-556.5 614.182,-556.5 608.182,-556.5 602.182,-550.5 602.182,-544.5 602.182,-544.5 602.182,-384.5 602.182,-384.5 602.182,-378.5 608.182,-372.5 614.182,-372.5"/>
<text text-anchor="middle" x="682.688" y="-541.3" font-family="Times,serif" font-size="14.00">Run</text>
<polyline fill="none" stroke="black" points="602.182,-534.5 763.193,-534.5 "/>
<text text-anchor="start" x="610.182" y="-519.3" font-family="Times,serif" font-size="14.00">id :integer</text>
<text text-anchor="start" x="610.182" y="-505.3" font-family="Times,serif" font-size="14.00">name :string</text>
<text text-anchor="start" x="610.182" y="-491.3" font-family="Times,serif" font-size="14.00">description :text</text>
<text text-anchor="start" x="610.182" y="-477.3" font-family="Times,serif" font-size="14.00">resort_id :integer</text>
<text text-anchor="start" x="610.182" y="-463.3" font-family="Times,serif" font-size="14.00">rating :float</text>
<text text-anchor="start" x="610.182" y="-449.3" font-family="Times,serif" font-size="14.00">created_at :datetime</text>
<text text-anchor="start" x="610.182" y="-435.3" font-family="Times,serif" font-size="14.00">updated_at :datetime</text>
<text text-anchor="start" x="610.182" y="-421.3" font-family="Times,serif" font-size="14.00">gpx_file_name :string</text>
<text text-anchor="start" x="610.182" y="-407.3" font-family="Times,serif" font-size="14.00">gpx_content_type :string</text>
<text text-anchor="start" x="610.182" y="-393.3" font-family="Times,serif" font-size="14.00">gpx_file_size :integer</text>
<text text-anchor="start" x="610.182" y="-379.3" font-family="Times,serif" font-size="14.00">gpx_updated_at :datetime</text>
</g>
<!-- Resort&#45;&gt;Run -->
<g id="edge8" class="edge"><title>Resort&#45;&gt;Run</title>
<path fill="none" stroke="#4700c7" d="M682.688,-585.349C682.688,-579.389 682.688,-573.294 682.688,-567.165"/>
<ellipse fill="none" stroke="#4700c7" cx="682.688" cy="-589.43" rx="4" ry="4"/>
<polygon fill="#4700c7" stroke="#4700c7" points="682.688,-566.835 687.188,-556.835 682.688,-561.835 682.688,-556.835 682.688,-556.835 682.688,-556.835 682.688,-561.835 678.188,-556.835 682.688,-566.835 682.688,-566.835"/>
</g>
<!-- Run&#45;&gt;Comment -->
<g id="edge12" class="edge"><title>Run&#45;&gt;Comment</title>
<path fill="none" stroke="#a6f005" d="M596.283,-370.784C585.388,-359.095 574.442,-347.349 564.098,-336.249"/>
<ellipse fill="none" stroke="#a6f005" cx="599.294" cy="-374.015" rx="4.00002" ry="4.00002"/>
<polygon fill="#a6f005" stroke="#a6f005" points="563.859,-335.992 560.333,-325.609 560.45,-332.334 557.041,-328.677 557.041,-328.677 557.041,-328.677 560.45,-332.334 553.749,-331.745 563.859,-335.992 563.859,-335.992"/>
</g>
<!-- Run&#45;&gt;Marker -->
<g id="edge11" class="edge"><title>Run&#45;&gt;Marker</title>
<path fill="none" stroke="#870a1e" d="M641.011,-362.703C638.466,-353.784 636.289,-344.801 634.688,-336 624.422,-279.593 618.769,-262.079 634.688,-207 637.338,-197.83 640.917,-188.686 645.083,-179.769"/>
<polygon fill="#870a1e" stroke="#870a1e" points="641.031,-362.769 639.6,-373.641 642.47,-367.557 643.909,-372.346 643.909,-372.346 643.909,-372.346 642.47,-367.557 648.219,-371.05 641.031,-362.769 641.031,-362.769"/>
<polygon fill="#870a1e" stroke="#870a1e" points="645.199,-179.534 653.659,-172.558 647.411,-175.05 649.624,-170.566 649.624,-170.566 649.624,-170.566 647.411,-175.05 645.588,-168.575 645.199,-179.534 645.199,-179.534"/>
</g>
<!-- Run&#45;&gt;Medium -->
<g id="edge13" class="edge"><title>Run&#45;&gt;Medium</title>
<path fill="none" stroke="#68ce8d" d="M768.857,-371.554C777.826,-361.983 786.84,-352.365 795.538,-343.084"/>
<ellipse fill="none" stroke="#68ce8d" cx="766.021" cy="-374.58" rx="4.00002" ry="4.00002"/>
<polygon fill="#68ce8d" stroke="#68ce8d" points="795.601,-343.018 805.722,-338.798 799.02,-339.369 802.439,-335.721 802.439,-335.721 802.439,-335.721 799.02,-339.369 799.155,-332.644 795.601,-343.018 795.601,-343.018"/>
</g>
<!-- Segment -->
<g id="node10" class="node"><title>Segment</title>
<path fill="none" stroke="black" d="M656.182,-228.5C656.182,-228.5 765.193,-228.5 765.193,-228.5 771.193,-228.5 777.193,-234.5 777.193,-240.5 777.193,-240.5 777.193,-302.5 777.193,-302.5 777.193,-308.5 771.193,-314.5 765.193,-314.5 765.193,-314.5 656.182,-314.5 656.182,-314.5 650.182,-314.5 644.182,-308.5 644.182,-302.5 644.182,-302.5 644.182,-240.5 644.182,-240.5 644.182,-234.5 650.182,-228.5 656.182,-228.5"/>
<text text-anchor="middle" x="710.688" y="-299.3" font-family="Times,serif" font-size="14.00">Segment</text>
<polyline fill="none" stroke="black" points="644.182,-292.5 777.193,-292.5 "/>
<text text-anchor="start" x="652.182" y="-277.3" font-family="Times,serif" font-size="14.00">id :integer</text>
<text text-anchor="start" x="652.182" y="-263.3" font-family="Times,serif" font-size="14.00">run_id :integer</text>
<text text-anchor="start" x="652.182" y="-249.3" font-family="Times,serif" font-size="14.00">created_at :datetime</text>
<text text-anchor="start" x="652.182" y="-235.3" font-family="Times,serif" font-size="14.00">updated_at :datetime</text>
</g>
<!-- Run&#45;&gt;Segment -->
<g id="edge10" class="edge"><title>Run&#45;&gt;Segment</title>
<path fill="none" stroke="#12a783" d="M697.211,-364.43C699.216,-350.755 701.206,-337.178 703.017,-324.823"/>
<ellipse fill="none" stroke="#12a783" cx="696.612" cy="-368.517" rx="4.00001" ry="4.00001"/>
<polygon fill="#12a783" stroke="#12a783" points="703.043,-324.65 708.946,-315.409 703.768,-319.703 704.493,-314.756 704.493,-314.756 704.493,-314.756 703.768,-319.703 700.041,-314.103 703.043,-324.65 703.043,-324.65"/>
</g>
<!-- Segment&#45;&gt;Marker -->
<g id="edge15" class="edge"><title>Segment&#45;&gt;Marker</title>
<path fill="none" stroke="#6d0e90" d="M710.688,-220.001C710.688,-207.81 710.688,-194.389 710.688,-180.899"/>
<ellipse fill="none" stroke="#6d0e90" cx="710.688" cy="-224.287" rx="4" ry="4"/>
<polygon fill="#6d0e90" stroke="#6d0e90" points="710.688,-180.589 715.188,-170.589 710.688,-175.589 710.688,-170.589 710.688,-170.589 710.688,-170.589 710.688,-175.589 706.188,-170.589 710.688,-180.589 710.688,-180.589"/>
</g>
<!-- User -->
<g id="node11" class="node"><title>User</title>
<path fill="none" stroke="black" d="M392.41,-758.5C392.41,-758.5 572.966,-758.5 572.966,-758.5 578.966,-758.5 584.966,-764.5 584.966,-770.5 584.966,-770.5 584.966,-1014.5 584.966,-1014.5 584.966,-1020.5 578.966,-1026.5 572.966,-1026.5 572.966,-1026.5 392.41,-1026.5 392.41,-1026.5 386.41,-1026.5 380.41,-1020.5 380.41,-1014.5 380.41,-1014.5 380.41,-770.5 380.41,-770.5 380.41,-764.5 386.41,-758.5 392.41,-758.5"/>
<text text-anchor="middle" x="482.688" y="-1011.3" font-family="Times,serif" font-size="14.00">User</text>
<polyline fill="none" stroke="black" points="380.41,-1004.5 584.966,-1004.5 "/>
<text text-anchor="start" x="388.41" y="-989.3" font-family="Times,serif" font-size="14.00">id :integer</text>
<text text-anchor="start" x="388.41" y="-975.3" font-family="Times,serif" font-size="14.00">email :string</text>
<text text-anchor="start" x="388.41" y="-961.3" font-family="Times,serif" font-size="14.00">encrypted_password :string</text>
<text text-anchor="start" x="388.41" y="-947.3" font-family="Times,serif" font-size="14.00">reset_password_token :string</text>
<text text-anchor="start" x="388.41" y="-933.3" font-family="Times,serif" font-size="14.00">reset_password_sent_at :datetime</text>
<text text-anchor="start" x="388.41" y="-919.3" font-family="Times,serif" font-size="14.00">remember_created_at :datetime</text>
<text text-anchor="start" x="388.41" y="-905.3" font-family="Times,serif" font-size="14.00">sign_in_count :integer</text>
<text text-anchor="start" x="388.41" y="-891.3" font-family="Times,serif" font-size="14.00">current_sign_in_at :datetime</text>
<text text-anchor="start" x="388.41" y="-877.3" font-family="Times,serif" font-size="14.00">last_sign_in_at :datetime</text>
<text text-anchor="start" x="388.41" y="-863.3" font-family="Times,serif" font-size="14.00">current_sign_in_ip :string</text>
<text text-anchor="start" x="388.41" y="-849.3" font-family="Times,serif" font-size="14.00">last_sign_in_ip :string</text>
<text text-anchor="start" x="388.41" y="-835.3" font-family="Times,serif" font-size="14.00">role :string</text>
<text text-anchor="start" x="388.41" y="-821.3" font-family="Times,serif" font-size="14.00">photo :string</text>
<text text-anchor="start" x="388.41" y="-807.3" font-family="Times,serif" font-size="14.00">dob :date</text>
<text text-anchor="start" x="388.41" y="-793.3" font-family="Times,serif" font-size="14.00">name :string</text>
<text text-anchor="start" x="388.41" y="-779.3" font-family="Times,serif" font-size="14.00">created_at :datetime</text>
<text text-anchor="start" x="388.41" y="-765.3" font-family="Times,serif" font-size="14.00">updated_at :datetime</text>
</g>
<!-- User&#45;&gt;Authentication -->
<g id="edge19" class="edge"><title>User&#45;&gt;Authentication</title>
<path fill="none" stroke="#aac588" d="M438.506,-750.483C435.686,-741.481 432.93,-732.683 430.309,-724.318"/>
<ellipse fill="none" stroke="#aac588" cx="439.768" cy="-754.51" rx="4.00001" ry="4.00001"/>
<polygon fill="#aac588" stroke="#aac588" points="430.289,-724.254 431.593,-713.366 428.794,-719.483 427.299,-714.711 427.299,-714.711 427.299,-714.711 428.794,-719.483 423.005,-716.057 430.289,-724.254 430.289,-724.254"/>
</g>
<!-- User&#45;&gt;Comment -->
<g id="edge18" class="edge"><title>User&#45;&gt;Comment</title>
<path fill="none" stroke="#87405a" d="M487.716,-750.028C492.296,-621.153 498.859,-436.502 502.329,-338.877"/>
<ellipse fill="none" stroke="#87405a" cx="487.563" cy="-754.331" rx="4" ry="4"/>
<polygon fill="#87405a" stroke="#87405a" points="502.33,-338.839 507.182,-329.005 502.508,-333.842 502.685,-328.845 502.685,-328.845 502.685,-328.845 502.508,-333.842 498.188,-328.686 502.33,-338.839 502.33,-338.839"/>
</g>
<!-- User&#45;&gt;Run -->
<g id="edge17" class="edge"><title>User&#45;&gt;Run</title>
<path fill="none" stroke="#aeb3d2" d="M536.426,-750.443C556.89,-700.053 581.405,-643.317 606.688,-593 611.247,-583.926 616.204,-574.625 621.327,-565.381"/>
<ellipse fill="none" stroke="#aeb3d2" cx="534.807" cy="-754.444" rx="4.00001" ry="4.00001"/>
<polygon fill="#aeb3d2" stroke="#aeb3d2" points="621.391,-565.267 630.207,-558.747 623.837,-560.906 626.283,-556.545 626.283,-556.545 626.283,-556.545 623.837,-560.906 622.358,-554.344 621.391,-565.267 621.391,-565.267"/>
</g>
<!-- Object -->
<g id="node12" class="node"><title>Object</title>
<ellipse fill="none" stroke="black" cx="258.688" cy="-1099.5" rx="33.8596" ry="18"/>
<text text-anchor="middle" x="258.688" y="-1095.3" font-family="Times,serif" font-size="14.00">Object</text>
</g>
<!-- Object&#45;&gt;Ability -->
<g id="edge1" class="edge"><title>Object&#45;&gt;Ability</title>
<path fill="none" stroke="black" d="M258.688,-1081.37C258.688,-1044.04 258.688,-955.397 258.688,-914.652"/>
</g>
<!-- ActiveRecord::Base -->
<g id="node13" class="node"><title>ActiveRecord::Base</title>
<ellipse fill="none" stroke="black" cx="707.688" cy="-1099.5" rx="81.1422" ry="18"/>
<text text-anchor="middle" x="707.688" y="-1095.3" font-family="Times,serif" font-size="14.00">ActiveRecord::Base</text>
</g>
<!-- ActiveRecord::Base&#45;&gt;Authentication -->
<g id="edge2" class="edge"><title>ActiveRecord::Base&#45;&gt;Authentication</title>
<path fill="none" stroke="black" d="M631.381,-1093.16C542.505,-1085.17 403.726,-1066.57 371.688,-1027 299.35,-937.649 346.557,-793.416 381.635,-714.505"/>
</g>
<!-- ActiveRecord::Base&#45;&gt;Comment -->
<g id="edge3" class="edge"><title>ActiveRecord::Base&#45;&gt;Comment</title>
<path fill="none" stroke="black" d="M628.659,-1094.99C529.46,-1088.72 367.761,-1071.77 330.688,-1027 269.171,-952.719 309.439,-686.349 333.688,-593 359.613,-493.198 422.174,-390.145 463.999,-328.703"/>
</g>
<!-- ActiveRecord::Base&#45;&gt;Country -->
<g id="edge5" class="edge"><title>ActiveRecord::Base&#45;&gt;Country</title>
<path fill="none" stroke="black" d="M707.688,-1081.37C707.688,-1049.62 707.688,-980.751 707.688,-935.803"/>
</g>
<!-- ActiveRecord::Base&#45;&gt;Marker -->
<g id="edge6" class="edge"><title>ActiveRecord::Base&#45;&gt;Marker</title>
<path fill="none" stroke="black" d="M771.622,-1088.16C809.693,-1078.67 855.863,-1060.7 883.688,-1027 989.995,-898.258 956.688,-825.46 956.688,-658.5 956.688,-658.5 956.688,-658.5 956.688,-463.5 956.688,-349.188 1000.18,-302.72 937.688,-207 906.041,-158.524 848.161,-128.232 798.77,-110.145"/>
</g>
<!-- ActiveRecord::Base&#45;&gt;Medium -->
<g id="edge7" class="edge"><title>ActiveRecord::Base&#45;&gt;Medium</title>
<path fill="none" stroke="black" d="M752.849,-1084.47C780.099,-1073.46 812.731,-1055.19 829.688,-1027 963.918,-803.848 909.119,-472.774 877.813,-335.581"/>
</g>
<!-- ActiveRecord::Base&#45;&gt;Resort -->
<g id="edge9" class="edge"><title>ActiveRecord::Base&#45;&gt;Resort</title>
<path fill="none" stroke="black" d="M681.592,-1082.37C663.848,-1069.76 641.821,-1050.45 631.688,-1027 584.257,-917.256 603.638,-874.219 631.688,-758 634.648,-745.735 639.393,-733.283 644.825,-721.531"/>
</g>
<!-- ActiveRecord::Base&#45;&gt;Run -->
<g id="edge14" class="edge"><title>ActiveRecord::Base&#45;&gt;Run</title>
<path fill="none" stroke="black" d="M733.784,-1082.37C751.528,-1069.76 773.554,-1050.45 783.688,-1027 831.119,-917.256 792.668,-877.218 783.688,-758 778.116,-684.039 783.699,-662.826 758.688,-593 754.343,-580.87 748.796,-568.614 742.683,-556.745"/>
</g>
<!-- ActiveRecord::Base&#45;&gt;Segment -->
<g id="edge16" class="edge"><title>ActiveRecord::Base&#45;&gt;Segment</title>
<path fill="none" stroke="black" d="M744.709,-1083.42C767.97,-1071.78 796.064,-1053.19 809.688,-1027 853.962,-941.896 775.769,-381.104 772.688,-372 765.901,-351.95 754.396,-331.769 743.126,-314.873"/>
</g>
<!-- ActiveRecord::Base&#45;&gt;User -->
<g id="edge20" class="edge"><title>ActiveRecord::Base&#45;&gt;User</title>
<path fill="none" stroke="black" d="M678.86,-1082.55C655.964,-1069.21 623.743,-1048.89 598.688,-1027 594.179,-1023.06 589.683,-1018.95 585.226,-1014.71"/>
</g>
</g>
</svg>
