<?xml version="1.0" encoding="UTF-8" standalone="no"?>
<!DOCTYPE svg PUBLIC "-//W3C//DTD SVG 1.1//EN"
 "http://www.w3.org/Graphics/SVG/1.1/DTD/svg11.dtd">
<!-- Generated by graphviz version 2.38.0 (20140413.2041)
 -->
<!-- Title: models_diagram Pages: 1 -->
<svg width="528pt" height="441pt"
 viewBox="0.00 0.00 527.59 441.00" xmlns="http://www.w3.org/2000/svg" xmlns:xlink="http://www.w3.org/1999/xlink">
<g id="graph0" class="graph" transform="scale(1 1) rotate(0) translate(4 437)">
<title>models_diagram</title>
<polygon fill="white" stroke="none" points="-4,4 -4,-437 523.595,-437 523.595,4 -4,4"/>
<!-- _diagram_info -->
<g id="node1" class="node"><title>_diagram_info</title>
<text text-anchor="start" x="8" y="-418.6" font-family="Times,serif" font-size="13.00">Models diagram</text>
<text text-anchor="start" x="8" y="-405.6" font-family="Times,serif" font-size="13.00">Date: Sep 10 2014 &#45; 11:53</text>
<text text-anchor="start" x="8" y="-392.6" font-family="Times,serif" font-size="13.00">Migration version: 20140910101228</text>
<text text-anchor="start" x="8" y="-379.6" font-family="Times,serif" font-size="13.00">Generated by RailRoady 1.1.1</text>
<text text-anchor="start" x="8" y="-366.6" font-family="Times,serif" font-size="13.00">http://railroady.prestonlee.com</text>
</g>
<!-- Authentication -->
<g id="node2" class="node"><title>Authentication</title>
<ellipse fill="none" stroke="black" cx="120.688" cy="-234" rx="62.8252" ry="18"/>
<text text-anchor="middle" x="120.688" y="-229.8" font-family="Times,serif" font-size="14.00">Authentication</text>
</g>
<!-- Comment -->
<g id="node3" class="node"><title>Comment</title>
<ellipse fill="none" stroke="black" cx="208.688" cy="-90" rx="44.9768" ry="18"/>
<text text-anchor="middle" x="208.688" y="-85.8" font-family="Times,serif" font-size="14.00">Comment</text>
</g>
<!-- Country -->
<g id="node4" class="node"><title>Country</title>
<ellipse fill="none" stroke="black" cx="306.688" cy="-306" rx="39.1887" ry="18"/>
<text text-anchor="middle" x="306.688" y="-301.8" font-family="Times,serif" font-size="14.00">Country</text>
</g>
<!-- Resort -->
<g id="node7" class="node"><title>Resort</title>
<ellipse fill="none" stroke="black" cx="310.688" cy="-234" rx="33.3925" ry="18"/>
<text text-anchor="middle" x="310.688" y="-229.8" font-family="Times,serif" font-size="14.00">Resort</text>
</g>
<!-- Country&#45;&gt;Resort -->
<g id="edge3" class="edge"><title>Country&#45;&gt;Resort</title>
<path fill="none" stroke="#9ba858" d="M308.137,-279.64C308.456,-274.063 308.794,-268.132 309.118,-262.476"/>
<ellipse fill="none" stroke="#9ba858" cx="307.905" cy="-283.703" rx="4" ry="4"/>
<polygon fill="#9ba858" stroke="#9ba858" points="309.14,-262.088 314.203,-252.361 309.425,-257.096 309.71,-252.104 309.71,-252.104 309.71,-252.104 309.425,-257.096 305.218,-251.848 309.14,-262.088 309.14,-262.088"/>
</g>
<!-- Marker -->
<g id="node5" class="node"><title>Marker</title>
<ellipse fill="none" stroke="black" cx="350.688" cy="-18" rx="36.2645" ry="18"/>
<text text-anchor="middle" x="350.688" y="-13.8" font-family="Times,serif" font-size="14.00">Marker</text>
</g>
<!-- Medium -->
<g id="node6" class="node"><title>Medium</title>
<ellipse fill="none" stroke="black" cx="449.688" cy="-90" rx="40.149" ry="18"/>
<text text-anchor="middle" x="449.688" y="-85.8" font-family="Times,serif" font-size="14.00">Medium</text>
</g>
<!-- Run -->
<g id="node8" class="node"><title>Run</title>
<ellipse fill="none" stroke="black" cx="310.688" cy="-162" rx="27" ry="18"/>
<text text-anchor="middle" x="310.688" y="-157.8" font-family="Times,serif" font-size="14.00">Run</text>
</g>
<!-- Resort&#45;&gt;Run -->
<g id="edge7" class="edge"><title>Resort&#45;&gt;Run</title>
<path fill="none" stroke="#a97edd" d="M310.688,-207.64C310.688,-202.063 310.688,-196.132 310.688,-190.476"/>
<ellipse fill="none" stroke="#a97edd" cx="310.688" cy="-211.697" rx="4" ry="4"/>
<polygon fill="#a97edd" stroke="#a97edd" points="310.688,-190.104 315.188,-180.104 310.688,-185.104 310.688,-180.104 310.688,-180.104 310.688,-180.104 310.688,-185.104 306.188,-180.104 310.688,-190.104 310.688,-190.104"/>
</g>
<!-- Run&#45;&gt;Comment -->
<g id="edge11" class="edge"><title>Run&#45;&gt;Comment</title>
<path fill="none" stroke="#61fcf2" d="M285.538,-143.74C271.369,-134.016 253.582,-121.809 238.689,-111.589"/>
<ellipse fill="none" stroke="#61fcf2" cx="289.154" cy="-146.222" rx="4.00002" ry="4.00002"/>
<polygon fill="#61fcf2" stroke="#61fcf2" points="238.549,-111.493 232.85,-102.124 234.426,-108.664 230.304,-105.834 230.304,-105.834 230.304,-105.834 234.426,-108.664 227.757,-109.545 238.549,-111.493 238.549,-111.493"/>
</g>
<!-- Run&#45;&gt;Marker -->
<g id="edge10" class="edge"><title>Run&#45;&gt;Marker</title>
<path fill="none" stroke="#c02225" d="M301.285,-134.641C296.32,-116.448 292.733,-92.0242 300.688,-72 305.504,-59.8765 314.554,-48.9199 323.644,-40.1575"/>
<polygon fill="#c02225" stroke="#c02225" points="301.31,-134.724 299.898,-145.598 302.757,-139.51 304.205,-144.296 304.205,-144.296 304.205,-144.296 302.757,-139.51 308.512,-142.993 301.31,-134.724 301.31,-134.724"/>
<polygon fill="#c02225" stroke="#c02225" points="323.777,-40.038 334.214,-36.6754 327.488,-36.6868 331.198,-33.3357 331.198,-33.3357 331.198,-33.3357 327.488,-36.6868 328.182,-29.996 323.777,-40.038 323.777,-40.038"/>
</g>
<!-- Run&#45;&gt;Medium -->
<g id="edge12" class="edge"><title>Run&#45;&gt;Medium</title>
<path fill="none" stroke="#fc811f" d="M338.85,-146.817C360.857,-135.735 391.549,-120.279 415.057,-108.44"/>
<ellipse fill="none" stroke="#fc811f" cx="335.07" cy="-148.721" rx="4.00002" ry="4.00002"/>
<polygon fill="#fc811f" stroke="#fc811f" points="415.07,-108.433 426.026,-107.954 419.536,-106.184 424.002,-103.935 424.002,-103.935 424.002,-103.935 419.536,-106.184 421.978,-99.9162 415.07,-108.433 415.07,-108.433"/>
</g>
<!-- Segment -->
<g id="node9" class="node"><title>Segment</title>
<ellipse fill="none" stroke="black" cx="350.688" cy="-90" rx="41.1093" ry="18"/>
<text text-anchor="middle" x="350.688" y="-85.8" font-family="Times,serif" font-size="14.00">Segment</text>
</g>
<!-- Run&#45;&gt;Segment -->
<g id="edge9" class="edge"><title>Run&#45;&gt;Segment</title>
<path fill="none" stroke="#ca80c7" d="M324.068,-137.585C327.924,-130.837 332.15,-123.441 336.077,-116.569"/>
<ellipse fill="none" stroke="#ca80c7" cx="321.95" cy="-141.292" rx="4.00002" ry="4.00002"/>
<polygon fill="#ca80c7" stroke="#ca80c7" points="336.222,-116.316 345.09,-109.866 338.702,-111.975 341.183,-107.633 341.183,-107.633 341.183,-107.633 338.702,-111.975 337.276,-105.401 336.222,-116.316 336.222,-116.316"/>
</g>
<!-- Segment&#45;&gt;Marker -->
<g id="edge14" class="edge"><title>Segment&#45;&gt;Marker</title>
<path fill="none" stroke="#0c68f7" d="M350.688,-63.6398C350.688,-58.0629 350.688,-52.1319 350.688,-46.4761"/>
<ellipse fill="none" stroke="#0c68f7" cx="350.688" cy="-67.6966" rx="4" ry="4"/>
<polygon fill="#0c68f7" stroke="#0c68f7" points="350.688,-46.1043 355.188,-36.1043 350.688,-41.1043 350.688,-36.1043 350.688,-36.1043 350.688,-36.1043 350.688,-41.1043 346.188,-36.1044 350.688,-46.1043 350.688,-46.1043"/>
</g>
<!-- User -->
<g id="node10" class="node"><title>User</title>
<ellipse fill="none" stroke="black" cx="184.688" cy="-306" rx="27" ry="18"/>
<text text-anchor="middle" x="184.688" y="-301.8" font-family="Times,serif" font-size="14.00">User</text>
</g>
<!-- User&#45;&gt;Authentication -->
<g id="edge18" class="edge"><title>User&#45;&gt;Authentication</title>
<path fill="none" stroke="#feaf63" d="M165.514,-284.028C158.445,-276.297 150.377,-267.472 143.051,-259.46"/>
<ellipse fill="none" stroke="#feaf63" cx="168.416" cy="-287.203" rx="4.00002" ry="4.00002"/>
<polygon fill="#feaf63" stroke="#feaf63" points="142.785,-259.169 139.359,-248.753 139.412,-255.479 136.038,-251.789 136.038,-251.789 136.038,-251.789 139.412,-255.479 132.717,-254.825 142.785,-259.169 142.785,-259.169"/>
</g>
<!-- User&#45;&gt;Comment -->
<g id="edge17" class="edge"><title>User&#45;&gt;Comment</title>
<path fill="none" stroke="#575a41" d="M188.754,-279.833C190.103,-271.041 191.55,-261.097 192.688,-252 198.545,-205.173 203.605,-150.466 206.392,-118.39"/>
<ellipse fill="none" stroke="#575a41" cx="188.12" cy="-283.893" rx="4.00001" ry="4.00001"/>
<polygon fill="#575a41" stroke="#575a41" points="206.392,-118.388 211.732,-108.809 206.82,-113.406 207.248,-108.424 207.248,-108.424 207.248,-108.424 206.82,-113.406 202.765,-108.039 206.392,-118.388 206.392,-118.388"/>
</g>
<!-- User&#45;&gt;Run -->
<g id="edge16" class="edge"><title>User&#45;&gt;Run</title>
<path fill="none" stroke="#e23800" d="M203.403,-283.908C226.686,-257.669 266.294,-213.031 290.319,-185.955"/>
<ellipse fill="none" stroke="#e23800" cx="200.589" cy="-287.08" rx="4.00002" ry="4.00002"/>
<polygon fill="#e23800" stroke="#e23800" points="290.603,-185.635 300.606,-181.142 293.921,-181.895 297.24,-178.155 297.24,-178.155 297.24,-178.155 293.921,-181.895 293.874,-175.169 290.603,-185.635 290.603,-185.635"/>
</g>
<!-- ActiveRecord::Base -->
<g id="node11" class="node"><title>ActiveRecord::Base</title>
<ellipse fill="none" stroke="black" cx="306.688" cy="-396.5" rx="81.1422" ry="18"/>
<text text-anchor="middle" x="306.688" y="-392.3" font-family="Times,serif" font-size="14.00">ActiveRecord::Base</text>
</g>
<!-- ActiveRecord::Base&#45;&gt;Authentication -->
<g id="edge1" class="edge"><title>ActiveRecord::Base&#45;&gt;Authentication</title>
<path fill="none" stroke="black" d="M269.208,-380.43C225.251,-362.466 157.251,-333.66 148.688,-324 130.636,-303.637 124.218,-271.671 121.939,-252.101"/>
</g>
<!-- ActiveRecord::Base&#45;&gt;Comment -->
<g id="edge2" class="edge"><title>ActiveRecord::Base&#45;&gt;Comment</title>
<path fill="none" stroke="black" d="M268.501,-380.431C216.137,-359.753 128.284,-325.005 126.688,-324 86.7601,-298.869 67.6096,-295.217 48.6877,-252 18.4212,-182.872 122.968,-127.074 177.571,-103.346"/>
</g>
<!-- ActiveRecord::Base&#45;&gt;Country -->
<g id="edge4" class="edge"><title>ActiveRecord::Base&#45;&gt;Country</title>
<path fill="none" stroke="black" d="M306.688,-378.436C306.688,-362.765 306.688,-339.666 306.688,-324.011"/>
</g>
<!-- ActiveRecord::Base&#45;&gt;Marker -->
<g id="edge5" class="edge"><title>ActiveRecord::Base&#45;&gt;Marker</title>
<path fill="none" stroke="black" d="M355.626,-382.006C417.957,-361.489 517.688,-316.005 517.688,-235 517.688,-235 517.688,-235 517.688,-161 517.688,-120.553 525.316,-102.445 498.688,-72 470.119,-39.3361 419.946,-26.8018 386.026,-21.9926"/>
</g>
<!-- ActiveRecord::Base&#45;&gt;Medium -->
<g id="edge6" class="edge"><title>ActiveRecord::Base&#45;&gt;Medium</title>
<path fill="none" stroke="black" d="M331.855,-379.34C349.959,-366.45 373.58,-346.813 387.688,-324 432.16,-252.085 445.052,-148.59 448.512,-108.129"/>
</g>
<!-- ActiveRecord::Base&#45;&gt;Resort -->
<g id="edge8" class="edge"><title>ActiveRecord::Base&#45;&gt;Resort</title>
<path fill="none" stroke="black" d="M289.954,-378.517C271.325,-357.45 245.466,-320.354 258.688,-288 265.222,-272.01 279.163,-258.238 290.966,-248.744"/>
</g>
<!-- ActiveRecord::Base&#45;&gt;Run -->
<g id="edge13" class="edge"><title>ActiveRecord::Base&#45;&gt;Run</title>
<path fill="none" stroke="black" d="M322.136,-378.808C333.611,-365.201 348.329,-344.882 354.688,-324 359.381,-308.589 358.967,-233.258 352.688,-216 347.229,-200.995 335.716,-186.975 326.123,-177.128"/>
</g>
<!-- ActiveRecord::Base&#45;&gt;Segment -->
<g id="edge15" class="edge"><title>ActiveRecord::Base&#45;&gt;Segment</title>
<path fill="none" stroke="black" d="M327.79,-378.942C342.65,-365.849 361.328,-346.132 369.688,-324 398.512,-247.685 370.36,-147.571 356.933,-108.076"/>
</g>
<!-- ActiveRecord::Base&#45;&gt;User -->
<g id="edge19" class="edge"><title>ActiveRecord::Base&#45;&gt;User</title>
<path fill="none" stroke="black" d="M284.026,-379.061C260.459,-361.966 224.053,-335.556 202.476,-319.903"/>
</g>
</g>
</svg>
