<?xml version="1.0" encoding="UTF-8" standalone="no"?>
<!DOCTYPE svg PUBLIC "-//W3C//DTD SVG 1.1//EN"
 "http://www.w3.org/Graphics/SVG/1.1/DTD/svg11.dtd">
<!-- Generated by graphviz version 2.38.0 (20140413.2041)
 -->
<!-- Title: models_diagram Pages: 1 -->
<svg width="721pt" height="1144pt"
 viewBox="0.00 0.00 721.02 1144.00" xmlns="http://www.w3.org/2000/svg" xmlns:xlink="http://www.w3.org/1999/xlink">
<g id="graph0" class="graph" transform="scale(1 1) rotate(0) translate(4 1140)">
<title>models_diagram</title>
<polygon fill="white" stroke="none" points="-4,4 -4,-1140 717.016,-1140 717.016,4 -4,4"/>
<!-- _diagram_info -->
<g id="node1" class="node"><title>_diagram_info</title>
<text text-anchor="start" x="150.352" y="-1121.6" font-family="Times,serif" font-size="13.00">Models diagram</text>
<text text-anchor="start" x="150.352" y="-1108.6" font-family="Times,serif" font-size="13.00">Date: Sep 10 2014 &#45; 11:53</text>
<text text-anchor="start" x="150.352" y="-1095.6" font-family="Times,serif" font-size="13.00">Migration version: 20140910101228</text>
<text text-anchor="start" x="150.352" y="-1082.6" font-family="Times,serif" font-size="13.00">Generated by RailRoady 1.1.1</text>
<text text-anchor="start" x="150.352" y="-1069.6" font-family="Times,serif" font-size="13.00">http://railroady.prestonlee.com</text>
</g>
<!-- Authentication -->
<g id="node2" class="node"><title>Authentication</title>
<path fill="none" stroke="black" d="M96.5344,-600.5C96.5344,-600.5 205.545,-600.5 205.545,-600.5 211.545,-600.5 217.545,-606.5 217.545,-612.5 217.545,-612.5 217.545,-702.5 217.545,-702.5 217.545,-708.5 211.545,-714.5 205.545,-714.5 205.545,-714.5 96.5344,-714.5 96.5344,-714.5 90.5344,-714.5 84.5344,-708.5 84.5344,-702.5 84.5344,-702.5 84.5344,-612.5 84.5344,-612.5 84.5344,-606.5 90.5344,-600.5 96.5344,-600.5"/>
<text text-anchor="middle" x="151.04" y="-699.3" font-family="Times,serif" font-size="14.00">Authentication</text>
<polyline fill="none" stroke="black" points="84.5344,-692.5 217.545,-692.5 "/>
<text text-anchor="start" x="92.5344" y="-677.3" font-family="Times,serif" font-size="14.00">id :integer</text>
<text text-anchor="start" x="92.5344" y="-663.3" font-family="Times,serif" font-size="14.00">provider :string</text>
<text text-anchor="start" x="92.5344" y="-649.3" font-family="Times,serif" font-size="14.00">uid :string</text>
<text text-anchor="start" x="92.5344" y="-635.3" font-family="Times,serif" font-size="14.00">user_id :integer</text>
<text text-anchor="start" x="92.5344" y="-621.3" font-family="Times,serif" font-size="14.00">created_at :datetime</text>
<text text-anchor="start" x="92.5344" y="-607.3" font-family="Times,serif" font-size="14.00">updated_at :datetime</text>
</g>
<!-- Comment -->
<g id="node3" class="node"><title>Comment</title>
<path fill="none" stroke="black" d="M191.534,-214.5C191.534,-214.5 300.545,-214.5 300.545,-214.5 306.545,-214.5 312.545,-220.5 312.545,-226.5 312.545,-226.5 312.545,-316.5 312.545,-316.5 312.545,-322.5 306.545,-328.5 300.545,-328.5 300.545,-328.5 191.534,-328.5 191.534,-328.5 185.534,-328.5 179.534,-322.5 179.534,-316.5 179.534,-316.5 179.534,-226.5 179.534,-226.5 179.534,-220.5 185.534,-214.5 191.534,-214.5"/>
<text text-anchor="middle" x="246.04" y="-313.3" font-family="Times,serif" font-size="14.00">Comment</text>
<polyline fill="none" stroke="black" points="179.534,-306.5 312.545,-306.5 "/>
<text text-anchor="start" x="187.534" y="-291.3" font-family="Times,serif" font-size="14.00">id :integer</text>
<text text-anchor="start" x="187.534" y="-277.3" font-family="Times,serif" font-size="14.00">content :string</text>
<text text-anchor="start" x="187.534" y="-263.3" font-family="Times,serif" font-size="14.00">user_id :integer</text>
<text text-anchor="start" x="187.534" y="-249.3" font-family="Times,serif" font-size="14.00">run_id :integer</text>
<text text-anchor="start" x="187.534" y="-235.3" font-family="Times,serif" font-size="14.00">created_at :datetime</text>
<text text-anchor="start" x="187.534" y="-221.3" font-family="Times,serif" font-size="14.00">updated_at :datetime</text>
</g>
<!-- Country -->
<g id="node4" class="node"><title>Country</title>
<path fill="none" stroke="black" d="M394.534,-849.5C394.534,-849.5 503.545,-849.5 503.545,-849.5 509.545,-849.5 515.545,-855.5 515.545,-861.5 515.545,-861.5 515.545,-923.5 515.545,-923.5 515.545,-929.5 509.545,-935.5 503.545,-935.5 503.545,-935.5 394.534,-935.5 394.534,-935.5 388.534,-935.5 382.534,-929.5 382.534,-923.5 382.534,-923.5 382.534,-861.5 382.534,-861.5 382.534,-855.5 388.534,-849.5 394.534,-849.5"/>
<text text-anchor="middle" x="449.04" y="-920.3" font-family="Times,serif" font-size="14.00">Country</text>
<polyline fill="none" stroke="black" points="382.534,-913.5 515.545,-913.5 "/>
<text text-anchor="start" x="390.534" y="-898.3" font-family="Times,serif" font-size="14.00">id :integer</text>
<text text-anchor="start" x="390.534" y="-884.3" font-family="Times,serif" font-size="14.00">name :string</text>
<text text-anchor="start" x="390.534" y="-870.3" font-family="Times,serif" font-size="14.00">created_at :datetime</text>
<text text-anchor="start" x="390.534" y="-856.3" font-family="Times,serif" font-size="14.00">updated_at :datetime</text>
</g>
<!-- Resort -->
<g id="node7" class="node"><title>Resort</title>
<path fill="none" stroke="black" d="M369.534,-593.5C369.534,-593.5 478.545,-593.5 478.545,-593.5 484.545,-593.5 490.545,-599.5 490.545,-605.5 490.545,-605.5 490.545,-709.5 490.545,-709.5 490.545,-715.5 484.545,-721.5 478.545,-721.5 478.545,-721.5 369.534,-721.5 369.534,-721.5 363.534,-721.5 357.534,-715.5 357.534,-709.5 357.534,-709.5 357.534,-605.5 357.534,-605.5 357.534,-599.5 363.534,-593.5 369.534,-593.5"/>
<text text-anchor="middle" x="424.04" y="-706.3" font-family="Times,serif" font-size="14.00">Resort</text>
<polyline fill="none" stroke="black" points="357.534,-699.5 490.545,-699.5 "/>
<text text-anchor="start" x="365.534" y="-684.3" font-family="Times,serif" font-size="14.00">id :integer</text>
<text text-anchor="start" x="365.534" y="-670.3" font-family="Times,serif" font-size="14.00">name :string</text>
<text text-anchor="start" x="365.534" y="-656.3" font-family="Times,serif" font-size="14.00">description :text</text>
<text text-anchor="start" x="365.534" y="-642.3" font-family="Times,serif" font-size="14.00">country_id :integer</text>
<text text-anchor="start" x="365.534" y="-628.3" font-family="Times,serif" font-size="14.00">image :text</text>
<text text-anchor="start" x="365.534" y="-614.3" font-family="Times,serif" font-size="14.00">created_at :datetime</text>
<text text-anchor="start" x="365.534" y="-600.3" font-family="Times,serif" font-size="14.00">updated_at :datetime</text>
</g>
<!-- Country&#45;&gt;Resort -->
<g id="edge3" class="edge"><title>Country&#45;&gt;Resort</title>
<path fill="none" stroke="#a984ab" d="M443.637,-841.142C440.224,-809.34 435.757,-767.704 431.949,-732.218"/>
<ellipse fill="none" stroke="#a984ab" cx="444.086" cy="-845.328" rx="4" ry="4"/>
<polygon fill="#a984ab" stroke="#a984ab" points="431.91,-731.848 435.317,-721.425 431.376,-726.876 430.843,-721.905 430.843,-721.905 430.843,-721.905 431.376,-726.876 426.369,-722.385 431.91,-731.848 431.91,-731.848"/>
</g>
<!-- Marker -->
<g id="node5" class="node"><title>Marker</title>
<path fill="none" stroke="black" d="M376.169,-0.5C376.169,-0.5 527.911,-0.5 527.911,-0.5 533.911,-0.5 539.911,-6.5 539.911,-12.5 539.911,-12.5 539.911,-158.5 539.911,-158.5 539.911,-164.5 533.911,-170.5 527.911,-170.5 527.911,-170.5 376.169,-170.5 376.169,-170.5 370.169,-170.5 364.169,-164.5 364.169,-158.5 364.169,-158.5 364.169,-12.5 364.169,-12.5 364.169,-6.5 370.169,-0.5 376.169,-0.5"/>
<text text-anchor="middle" x="452.04" y="-155.3" font-family="Times,serif" font-size="14.00">Marker</text>
<polyline fill="none" stroke="black" points="364.169,-148.5 539.911,-148.5 "/>
<text text-anchor="start" x="372.169" y="-133.3" font-family="Times,serif" font-size="14.00">id :integer</text>
<text text-anchor="start" x="372.169" y="-119.3" font-family="Times,serif" font-size="14.00">name :string</text>
<text text-anchor="start" x="372.169" y="-105.3" font-family="Times,serif" font-size="14.00">latitude :float</text>
<text text-anchor="start" x="372.169" y="-91.3" font-family="Times,serif" font-size="14.00">longitude :float</text>
<text text-anchor="start" x="372.169" y="-77.3" font-family="Times,serif" font-size="14.00">elevation :float</text>
<text text-anchor="start" x="372.169" y="-63.3" font-family="Times,serif" font-size="14.00">description :string</text>
<text text-anchor="start" x="372.169" y="-49.3" font-family="Times,serif" font-size="14.00">marker_created_at :datetime</text>
<text text-anchor="start" x="372.169" y="-35.3" font-family="Times,serif" font-size="14.00">segment_id :integer</text>
<text text-anchor="start" x="372.169" y="-21.3" font-family="Times,serif" font-size="14.00">created_at :datetime</text>
<text text-anchor="start" x="372.169" y="-7.3" font-family="Times,serif" font-size="14.00">updated_at :datetime</text>
</g>
<!-- Medium -->
<g id="node6" class="node"><title>Medium</title>
<path fill="none" stroke="black" d="M548.534,-207.5C548.534,-207.5 657.545,-207.5 657.545,-207.5 663.545,-207.5 669.545,-213.5 669.545,-219.5 669.545,-219.5 669.545,-323.5 669.545,-323.5 669.545,-329.5 663.545,-335.5 657.545,-335.5 657.545,-335.5 548.534,-335.5 548.534,-335.5 542.534,-335.5 536.534,-329.5 536.534,-323.5 536.534,-323.5 536.534,-219.5 536.534,-219.5 536.534,-213.5 542.534,-207.5 548.534,-207.5"/>
<text text-anchor="middle" x="603.04" y="-320.3" font-family="Times,serif" font-size="14.00">Medium</text>
<polyline fill="none" stroke="black" points="536.534,-313.5 669.545,-313.5 "/>
<text text-anchor="start" x="544.534" y="-298.3" font-family="Times,serif" font-size="14.00">id :integer</text>
<text text-anchor="start" x="544.534" y="-284.3" font-family="Times,serif" font-size="14.00">image :string</text>
<text text-anchor="start" x="544.534" y="-270.3" font-family="Times,serif" font-size="14.00">video :string</text>
<text text-anchor="start" x="544.534" y="-256.3" font-family="Times,serif" font-size="14.00">user_id :integer</text>
<text text-anchor="start" x="544.534" y="-242.3" font-family="Times,serif" font-size="14.00">run_id :integer</text>
<text text-anchor="start" x="544.534" y="-228.3" font-family="Times,serif" font-size="14.00">created_at :datetime</text>
<text text-anchor="start" x="544.534" y="-214.3" font-family="Times,serif" font-size="14.00">updated_at :datetime</text>
</g>
<!-- Run -->
<g id="node8" class="node"><title>Run</title>
<path fill="none" stroke="black" d="M355.534,-372.5C355.534,-372.5 492.545,-372.5 492.545,-372.5 498.545,-372.5 504.545,-378.5 504.545,-384.5 504.545,-384.5 504.545,-544.5 504.545,-544.5 504.545,-550.5 498.545,-556.5 492.545,-556.5 492.545,-556.5 355.534,-556.5 355.534,-556.5 349.534,-556.5 343.534,-550.5 343.534,-544.5 343.534,-544.5 343.534,-384.5 343.534,-384.5 343.534,-378.5 349.534,-372.5 355.534,-372.5"/>
<text text-anchor="middle" x="424.04" y="-541.3" font-family="Times,serif" font-size="14.00">Run</text>
<polyline fill="none" stroke="black" points="343.534,-534.5 504.545,-534.5 "/>
<text text-anchor="start" x="351.534" y="-519.3" font-family="Times,serif" font-size="14.00">id :integer</text>
<text text-anchor="start" x="351.534" y="-505.3" font-family="Times,serif" font-size="14.00">name :string</text>
<text text-anchor="start" x="351.534" y="-491.3" font-family="Times,serif" font-size="14.00">description :text</text>
<text text-anchor="start" x="351.534" y="-477.3" font-family="Times,serif" font-size="14.00">resort_id :integer</text>
<text text-anchor="start" x="351.534" y="-463.3" font-family="Times,serif" font-size="14.00">rating :float</text>
<text text-anchor="start" x="351.534" y="-449.3" font-family="Times,serif" font-size="14.00">created_at :datetime</text>
<text text-anchor="start" x="351.534" y="-435.3" font-family="Times,serif" font-size="14.00">updated_at :datetime</text>
<text text-anchor="start" x="351.534" y="-421.3" font-family="Times,serif" font-size="14.00">gpx_file_name :string</text>
<text text-anchor="start" x="351.534" y="-407.3" font-family="Times,serif" font-size="14.00">gpx_content_type :string</text>
<text text-anchor="start" x="351.534" y="-393.3" font-family="Times,serif" font-size="14.00">gpx_file_size :integer</text>
<text text-anchor="start" x="351.534" y="-379.3" font-family="Times,serif" font-size="14.00">gpx_updated_at :datetime</text>
</g>
<!-- Resort&#45;&gt;Run -->
<g id="edge7" class="edge"><title>Resort&#45;&gt;Run</title>
<path fill="none" stroke="#4f4124" d="M424.04,-585.349C424.04,-579.389 424.04,-573.294 424.04,-567.165"/>
<ellipse fill="none" stroke="#4f4124" cx="424.04" cy="-589.43" rx="4" ry="4"/>
<polygon fill="#4f4124" stroke="#4f4124" points="424.04,-566.835 428.54,-556.835 424.04,-561.835 424.04,-556.835 424.04,-556.835 424.04,-556.835 424.04,-561.835 419.54,-556.835 424.04,-566.835 424.04,-566.835"/>
</g>
<!-- Run&#45;&gt;Comment -->
<g id="edge11" class="edge"><title>Run&#45;&gt;Comment</title>
<path fill="none" stroke="#cd01fa" d="M337.635,-370.784C326.74,-359.095 315.794,-347.349 305.45,-336.249"/>
<ellipse fill="none" stroke="#cd01fa" cx="340.646" cy="-374.015" rx="4.00002" ry="4.00002"/>
<polygon fill="#cd01fa" stroke="#cd01fa" points="305.211,-335.992 301.685,-325.609 301.802,-332.334 298.393,-328.677 298.393,-328.677 298.393,-328.677 301.802,-332.334 295.101,-331.745 305.211,-335.992 305.211,-335.992"/>
</g>
<!-- Run&#45;&gt;Marker -->
<g id="edge10" class="edge"><title>Run&#45;&gt;Marker</title>
<path fill="none" stroke="#d58700" d="M382.363,-362.703C379.818,-353.784 377.642,-344.801 376.04,-336 365.774,-279.593 360.121,-262.079 376.04,-207 378.69,-197.83 382.269,-188.686 386.435,-179.769"/>
<polygon fill="#d58700" stroke="#d58700" points="382.383,-362.769 380.952,-373.641 383.822,-367.557 385.261,-372.346 385.261,-372.346 385.261,-372.346 383.822,-367.557 389.571,-371.05 382.383,-362.769 382.383,-362.769"/>
<polygon fill="#d58700" stroke="#d58700" points="386.551,-179.534 395.011,-172.558 388.763,-175.05 390.976,-170.566 390.976,-170.566 390.976,-170.566 388.763,-175.05 386.94,-168.575 386.551,-179.534 386.551,-179.534"/>
</g>
<!-- Run&#45;&gt;Medium -->
<g id="edge12" class="edge"><title>Run&#45;&gt;Medium</title>
<path fill="none" stroke="#79bf64" d="M510.209,-371.554C519.178,-361.983 528.192,-352.365 536.89,-343.084"/>
<ellipse fill="none" stroke="#79bf64" cx="507.373" cy="-374.58" rx="4.00002" ry="4.00002"/>
<polygon fill="#79bf64" stroke="#79bf64" points="536.953,-343.018 547.074,-338.798 540.372,-339.369 543.791,-335.721 543.791,-335.721 543.791,-335.721 540.372,-339.369 540.507,-332.644 536.953,-343.018 536.953,-343.018"/>
</g>
<!-- Segment -->
<g id="node9" class="node"><title>Segment</title>
<path fill="none" stroke="black" d="M397.534,-228.5C397.534,-228.5 506.545,-228.5 506.545,-228.5 512.545,-228.5 518.545,-234.5 518.545,-240.5 518.545,-240.5 518.545,-302.5 518.545,-302.5 518.545,-308.5 512.545,-314.5 506.545,-314.5 506.545,-314.5 397.534,-314.5 397.534,-314.5 391.534,-314.5 385.534,-308.5 385.534,-302.5 385.534,-302.5 385.534,-240.5 385.534,-240.5 385.534,-234.5 391.534,-228.5 397.534,-228.5"/>
<text text-anchor="middle" x="452.04" y="-299.3" font-family="Times,serif" font-size="14.00">Segment</text>
<polyline fill="none" stroke="black" points="385.534,-292.5 518.545,-292.5 "/>
<text text-anchor="start" x="393.534" y="-277.3" font-family="Times,serif" font-size="14.00">id :integer</text>
<text text-anchor="start" x="393.534" y="-263.3" font-family="Times,serif" font-size="14.00">run_id :integer</text>
<text text-anchor="start" x="393.534" y="-249.3" font-family="Times,serif" font-size="14.00">created_at :datetime</text>
<text text-anchor="start" x="393.534" y="-235.3" font-family="Times,serif" font-size="14.00">updated_at :datetime</text>
</g>
<!-- Run&#45;&gt;Segment -->
<g id="edge9" class="edge"><title>Run&#45;&gt;Segment</title>
<path fill="none" stroke="#0114c2" d="M438.563,-364.43C440.568,-350.755 442.558,-337.178 444.369,-324.823"/>
<ellipse fill="none" stroke="#0114c2" cx="437.964" cy="-368.517" rx="4.00001" ry="4.00001"/>
<polygon fill="#0114c2" stroke="#0114c2" points="444.395,-324.65 450.298,-315.409 445.12,-319.703 445.845,-314.756 445.845,-314.756 445.845,-314.756 445.12,-319.703 441.393,-314.103 444.395,-324.65 444.395,-324.65"/>
</g>
<!-- Segment&#45;&gt;Marker -->
<g id="edge14" class="edge"><title>Segment&#45;&gt;Marker</title>
<path fill="none" stroke="#a5b9b4" d="M452.04,-220.001C452.04,-207.81 452.04,-194.389 452.04,-180.899"/>
<ellipse fill="none" stroke="#a5b9b4" cx="452.04" cy="-224.287" rx="4" ry="4"/>
<polygon fill="#a5b9b4" stroke="#a5b9b4" points="452.04,-180.589 456.54,-170.589 452.04,-175.589 452.04,-170.589 452.04,-170.589 452.04,-170.589 452.04,-175.589 447.54,-170.589 452.04,-180.589 452.04,-180.589"/>
</g>
<!-- User -->
<g id="node10" class="node"><title>User</title>
<path fill="none" stroke="black" d="M133.762,-758.5C133.762,-758.5 314.318,-758.5 314.318,-758.5 320.318,-758.5 326.318,-764.5 326.318,-770.5 326.318,-770.5 326.318,-1014.5 326.318,-1014.5 326.318,-1020.5 320.318,-1026.5 314.318,-1026.5 314.318,-1026.5 133.762,-1026.5 133.762,-1026.5 127.762,-1026.5 121.762,-1020.5 121.762,-1014.5 121.762,-1014.5 121.762,-770.5 121.762,-770.5 121.762,-764.5 127.762,-758.5 133.762,-758.5"/>
<text text-anchor="middle" x="224.04" y="-1011.3" font-family="Times,serif" font-size="14.00">User</text>
<polyline fill="none" stroke="black" points="121.762,-1004.5 326.318,-1004.5 "/>
<text text-anchor="start" x="129.762" y="-989.3" font-family="Times,serif" font-size="14.00">id :integer</text>
<text text-anchor="start" x="129.762" y="-975.3" font-family="Times,serif" font-size="14.00">email :string</text>
<text text-anchor="start" x="129.762" y="-961.3" font-family="Times,serif" font-size="14.00">encrypted_password :string</text>
<text text-anchor="start" x="129.762" y="-947.3" font-family="Times,serif" font-size="14.00">reset_password_token :string</text>
<text text-anchor="start" x="129.762" y="-933.3" font-family="Times,serif" font-size="14.00">reset_password_sent_at :datetime</text>
<text text-anchor="start" x="129.762" y="-919.3" font-family="Times,serif" font-size="14.00">remember_created_at :datetime</text>
<text text-anchor="start" x="129.762" y="-905.3" font-family="Times,serif" font-size="14.00">sign_in_count :integer</text>
<text text-anchor="start" x="129.762" y="-891.3" font-family="Times,serif" font-size="14.00">current_sign_in_at :datetime</text>
<text text-anchor="start" x="129.762" y="-877.3" font-family="Times,serif" font-size="14.00">last_sign_in_at :datetime</text>
<text text-anchor="start" x="129.762" y="-863.3" font-family="Times,serif" font-size="14.00">current_sign_in_ip :string</text>
<text text-anchor="start" x="129.762" y="-849.3" font-family="Times,serif" font-size="14.00">last_sign_in_ip :string</text>
<text text-anchor="start" x="129.762" y="-835.3" font-family="Times,serif" font-size="14.00">role :string</text>
<text text-anchor="start" x="129.762" y="-821.3" font-family="Times,serif" font-size="14.00">photo :string</text>
<text text-anchor="start" x="129.762" y="-807.3" font-family="Times,serif" font-size="14.00">dob :date</text>
<text text-anchor="start" x="129.762" y="-793.3" font-family="Times,serif" font-size="14.00">name :string</text>
<text text-anchor="start" x="129.762" y="-779.3" font-family="Times,serif" font-size="14.00">created_at :datetime</text>
<text text-anchor="start" x="129.762" y="-765.3" font-family="Times,serif" font-size="14.00">updated_at :datetime</text>
</g>
<!-- User&#45;&gt;Authentication -->
<g id="edge18" class="edge"><title>User&#45;&gt;Authentication</title>
<path fill="none" stroke="#7dab8a" d="M179.858,-750.483C177.038,-741.481 174.282,-732.683 171.661,-724.318"/>
<ellipse fill="none" stroke="#7dab8a" cx="181.12" cy="-754.51" rx="4.00001" ry="4.00001"/>
<polygon fill="#7dab8a" stroke="#7dab8a" points="171.641,-724.254 172.945,-713.366 170.146,-719.483 168.651,-714.711 168.651,-714.711 168.651,-714.711 170.146,-719.483 164.357,-716.057 171.641,-724.254 171.641,-724.254"/>
</g>
<!-- User&#45;&gt;Comment -->
<g id="edge17" class="edge"><title>User&#45;&gt;Comment</title>
<path fill="none" stroke="#e8c4d4" d="M229.068,-750.028C233.648,-621.153 240.211,-436.502 243.681,-338.877"/>
<ellipse fill="none" stroke="#e8c4d4" cx="228.915" cy="-754.331" rx="4" ry="4"/>
<polygon fill="#e8c4d4" stroke="#e8c4d4" points="243.682,-338.839 248.534,-329.005 243.86,-333.842 244.037,-328.845 244.037,-328.845 244.037,-328.845 243.86,-333.842 239.54,-328.686 243.682,-338.839 243.682,-338.839"/>
</g>
<!-- User&#45;&gt;Run -->
<g id="edge16" class="edge"><title>User&#45;&gt;Run</title>
<path fill="none" stroke="#825e04" d="M277.778,-750.443C298.242,-700.053 322.757,-643.317 348.04,-593 352.599,-583.926 357.556,-574.625 362.679,-565.381"/>
<ellipse fill="none" stroke="#825e04" cx="276.159" cy="-754.444" rx="4.00001" ry="4.00001"/>
<polygon fill="#825e04" stroke="#825e04" points="362.743,-565.267 371.559,-558.747 365.189,-560.906 367.635,-556.545 367.635,-556.545 367.635,-556.545 365.189,-560.906 363.71,-554.344 362.743,-565.267 362.743,-565.267"/>
</g>
<!-- ActiveRecord::Base -->
<g id="node11" class="node"><title>ActiveRecord::Base</title>
<ellipse fill="none" stroke="black" cx="449.04" cy="-1099.5" rx="81.1422" ry="18"/>
<text text-anchor="middle" x="449.04" y="-1095.3" font-family="Times,serif" font-size="14.00">ActiveRecord::Base</text>
</g>
<!-- ActiveRecord::Base&#45;&gt;Authentication -->
<g id="edge1" class="edge"><title>ActiveRecord::Base&#45;&gt;Authentication</title>
<path fill="none" stroke="black" d="M415.048,-1082.94C398.46,-1075.91 378.029,-1068.06 359.04,-1063 305.655,-1048.77 149.168,-1068.8 113.04,-1027 37.759,-939.901 86.3322,-794.442 122.363,-714.82"/>
</g>
<!-- ActiveRecord::Base&#45;&gt;Comment -->
<g id="edge2" class="edge"><title>ActiveRecord::Base&#45;&gt;Comment</title>
<path fill="none" stroke="black" d="M415.519,-1082.95C398.867,-1075.83 378.244,-1067.9 359.04,-1063 296.33,-1047 112.881,-1075.51 70.0398,-1027 -111.264,-821.711 107.205,-465.645 204.187,-328.543"/>
</g>
<!-- ActiveRecord::Base&#45;&gt;Country -->
<g id="edge4" class="edge"><title>ActiveRecord::Base&#45;&gt;Country</title>
<path fill="none" stroke="black" d="M449.04,-1081.37C449.04,-1049.62 449.04,-980.751 449.04,-935.803"/>
</g>
<!-- ActiveRecord::Base&#45;&gt;Marker -->
<g id="edge5" class="edge"><title>ActiveRecord::Base&#45;&gt;Marker</title>
<path fill="none" stroke="black" d="M513.361,-1088.28C551.657,-1078.83 598.09,-1060.87 626.04,-1027 732.251,-898.29 698.04,-825.375 698.04,-658.5 698.04,-658.5 698.04,-658.5 698.04,-463.5 698.04,-349.188 741.529,-302.72 679.04,-207 647.393,-158.524 589.513,-128.232 540.122,-110.145"/>
</g>
<!-- ActiveRecord::Base&#45;&gt;Medium -->
<g id="edge6" class="edge"><title>ActiveRecord::Base&#45;&gt;Medium</title>
<path fill="none" stroke="black" d="M494.573,-1084.57C522.049,-1073.6 554.948,-1055.34 572.04,-1027 706.511,-804.011 650.977,-472.847 619.33,-335.606"/>
</g>
<!-- ActiveRecord::Base&#45;&gt;Resort -->
<g id="edge8" class="edge"><title>ActiveRecord::Base&#45;&gt;Resort</title>
<path fill="none" stroke="black" d="M422.944,-1082.37C405.2,-1069.76 383.173,-1050.45 373.04,-1027 325.609,-917.256 344.99,-874.219 373.04,-758 376,-745.735 380.745,-733.283 386.177,-721.531"/>
</g>
<!-- ActiveRecord::Base&#45;&gt;Run -->
<g id="edge13" class="edge"><title>ActiveRecord::Base&#45;&gt;Run</title>
<path fill="none" stroke="black" d="M475.136,-1082.37C492.88,-1069.76 514.906,-1050.45 525.04,-1027 572.471,-917.256 534.02,-877.218 525.04,-758 519.468,-684.039 525.051,-662.826 500.04,-593 495.695,-580.87 490.148,-568.614 484.035,-556.745"/>
</g>
<!-- ActiveRecord::Base&#45;&gt;Segment -->
<g id="edge15" class="edge"><title>ActiveRecord::Base&#45;&gt;Segment</title>
<path fill="none" stroke="black" d="M486.061,-1083.42C509.322,-1071.78 537.416,-1053.19 551.04,-1027 595.314,-941.896 517.121,-381.104 514.04,-372 507.253,-351.95 495.748,-331.769 484.478,-314.873"/>
</g>
<!-- ActiveRecord::Base&#45;&gt;User -->
<g id="edge19" class="edge"><title>ActiveRecord::Base&#45;&gt;User</title>
<path fill="none" stroke="black" d="M420.212,-1082.55C397.316,-1069.21 365.095,-1048.89 340.04,-1027 335.531,-1023.06 331.035,-1018.95 326.578,-1014.71"/>
</g>
</g>
</svg>
